<mxfile host="app.diagrams.net" modified="2024-05-04T12:46:53.663Z" agent="Mozilla/5.0 (Macintosh; Intel Mac OS X 10_15_7) AppleWebKit/605.1.15 (KHTML, like Gecko) Version/17.2.1 Safari/605.1.15" etag="uDi0HVrFkIHp4rY9net0" version="24.3.1" type="device">
  <diagram name="Page-1" id="gwILI0lYDebakYKZYeBu">
    <mxGraphModel dx="2561" dy="1653" grid="0" gridSize="10" guides="1" tooltips="1" connect="1" arrows="1" fold="1" page="0" pageScale="1" pageWidth="827" pageHeight="1169" math="0" shadow="0">
      <root>
        <mxCell id="0" />
        <mxCell id="1" parent="0" />
        <mxCell id="TdGyltSRt4Dew1mmWfEQ-4" value="" style="rounded=0;whiteSpace=wrap;html=1;" vertex="1" parent="1">
          <mxGeometry x="-426" y="262" width="120" height="60" as="geometry" />
        </mxCell>
        <mxCell id="TdGyltSRt4Dew1mmWfEQ-5" value="" style="triangle;whiteSpace=wrap;html=1;" vertex="1" parent="1">
          <mxGeometry x="-426" y="298" width="16" height="24" as="geometry" />
        </mxCell>
        <mxCell id="TdGyltSRt4Dew1mmWfEQ-6" value="" style="rounded=0;whiteSpace=wrap;html=1;flipV=1;flipH=0;" vertex="1" parent="1">
          <mxGeometry x="-426" y="125" width="120" height="60" as="geometry" />
        </mxCell>
        <mxCell id="TdGyltSRt4Dew1mmWfEQ-7" value="" style="triangle;whiteSpace=wrap;html=1;flipV=1;flipH=0;" vertex="1" parent="1">
          <mxGeometry x="-426" y="161" width="16" height="24" as="geometry" />
        </mxCell>
        <mxCell id="TdGyltSRt4Dew1mmWfEQ-8" value="" style="rounded=0;whiteSpace=wrap;html=1;" vertex="1" parent="1">
          <mxGeometry x="-426" y="-7" width="120" height="60" as="geometry" />
        </mxCell>
        <mxCell id="TdGyltSRt4Dew1mmWfEQ-9" value="" style="rounded=0;whiteSpace=wrap;html=1;" vertex="1" parent="1">
          <mxGeometry x="-200" y="-9" width="120" height="60" as="geometry" />
        </mxCell>
        <mxCell id="TdGyltSRt4Dew1mmWfEQ-10" value="" style="rounded=0;whiteSpace=wrap;html=1;" vertex="1" parent="1">
          <mxGeometry x="-198" y="125" width="120" height="60" as="geometry" />
        </mxCell>
        <mxCell id="TdGyltSRt4Dew1mmWfEQ-11" value="" style="shape=trapezoid;perimeter=trapezoidPerimeter;whiteSpace=wrap;html=1;fixedSize=1;" vertex="1" parent="1">
          <mxGeometry x="-213" y="237" width="166" height="41" as="geometry" />
        </mxCell>
        <mxCell id="TdGyltSRt4Dew1mmWfEQ-13" value="" style="rounded=0;whiteSpace=wrap;html=1;" vertex="1" parent="1">
          <mxGeometry x="-196" y="334" width="120" height="60" as="geometry" />
        </mxCell>
        <mxCell id="TdGyltSRt4Dew1mmWfEQ-14" value="" style="triangle;whiteSpace=wrap;html=1;" vertex="1" parent="1">
          <mxGeometry x="-196" y="370" width="16" height="24" as="geometry" />
        </mxCell>
        <mxCell id="TdGyltSRt4Dew1mmWfEQ-15" value="Clock Divider" style="text;strokeColor=none;fillColor=none;html=1;align=center;verticalAlign=middle;whiteSpace=wrap;rounded=0;fontSize=14;" vertex="1" parent="1">
          <mxGeometry x="-393.5" y="280.5" width="55" height="23" as="geometry" />
        </mxCell>
        <mxCell id="TdGyltSRt4Dew1mmWfEQ-16" value="2-bit Binary Counter" style="text;strokeColor=none;fillColor=none;html=1;align=center;verticalAlign=middle;whiteSpace=wrap;rounded=0;fontSize=14;" vertex="1" parent="1">
          <mxGeometry x="-396" y="140" width="60" height="30" as="geometry" />
        </mxCell>
        <mxCell id="TdGyltSRt4Dew1mmWfEQ-17" value="2*4 Binary Decoder" style="text;strokeColor=none;fillColor=none;html=1;align=center;verticalAlign=middle;whiteSpace=wrap;rounded=0;fontSize=14;" vertex="1" parent="1">
          <mxGeometry x="-398.5" y="8" width="60" height="30" as="geometry" />
        </mxCell>
        <mxCell id="TdGyltSRt4Dew1mmWfEQ-18" value="4-Digit 7-Segment Display" style="text;strokeColor=none;fillColor=none;html=1;align=center;verticalAlign=middle;whiteSpace=wrap;rounded=0;fontSize=14;" vertex="1" parent="1">
          <mxGeometry x="-168" y="4" width="60" height="30" as="geometry" />
        </mxCell>
        <mxCell id="TdGyltSRt4Dew1mmWfEQ-19" value="Binary to 7-Segment" style="text;strokeColor=none;fillColor=none;html=1;align=center;verticalAlign=middle;whiteSpace=wrap;rounded=0;fontSize=14;" vertex="1" parent="1">
          <mxGeometry x="-166" y="140" width="60" height="30" as="geometry" />
        </mxCell>
        <mxCell id="TdGyltSRt4Dew1mmWfEQ-20" value="4*1 MUX" style="text;strokeColor=none;fillColor=none;html=1;align=center;verticalAlign=middle;whiteSpace=wrap;rounded=0;fontSize=14;" vertex="1" parent="1">
          <mxGeometry x="-160" y="242.5" width="60" height="30" as="geometry" />
        </mxCell>
        <mxCell id="TdGyltSRt4Dew1mmWfEQ-21" value="Hours &amp;amp; Minutes Counter" style="text;strokeColor=none;fillColor=none;html=1;align=center;verticalAlign=middle;whiteSpace=wrap;rounded=0;fontSize=14;" vertex="1" parent="1">
          <mxGeometry x="-166" y="349" width="60" height="30" as="geometry" />
        </mxCell>
        <mxCell id="TdGyltSRt4Dew1mmWfEQ-22" value="" style="endArrow=classic;html=1;rounded=0;fontSize=12;startSize=8;endSize=8;curved=1;entryX=0;entryY=0.5;entryDx=0;entryDy=0;" edge="1" parent="1" target="TdGyltSRt4Dew1mmWfEQ-5">
          <mxGeometry width="50" height="50" relative="1" as="geometry">
            <mxPoint x="-496" y="310" as="sourcePoint" />
            <mxPoint x="-423" y="303.5" as="targetPoint" />
          </mxGeometry>
        </mxCell>
        <mxCell id="TdGyltSRt4Dew1mmWfEQ-24" value="" style="endArrow=classic;html=1;rounded=0;fontSize=12;startSize=8;endSize=8;curved=1;" edge="1" parent="1">
          <mxGeometry width="50" height="50" relative="1" as="geometry">
            <mxPoint x="-361" y="261" as="sourcePoint" />
            <mxPoint x="-361" y="186" as="targetPoint" />
          </mxGeometry>
        </mxCell>
        <mxCell id="TdGyltSRt4Dew1mmWfEQ-26" value="" style="endArrow=classic;html=1;rounded=0;fontSize=12;startSize=8;endSize=8;curved=1;" edge="1" parent="1">
          <mxGeometry width="50" height="50" relative="1" as="geometry">
            <mxPoint x="-359" y="121" as="sourcePoint" />
            <mxPoint x="-359" y="53" as="targetPoint" />
          </mxGeometry>
        </mxCell>
        <mxCell id="TdGyltSRt4Dew1mmWfEQ-28" value="" style="endArrow=classic;html=1;rounded=0;fontSize=12;startSize=8;endSize=8;curved=1;exitX=1.008;exitY=0.367;exitDx=0;exitDy=0;exitPerimeter=0;" edge="1" parent="1" source="TdGyltSRt4Dew1mmWfEQ-8">
          <mxGeometry width="50" height="50" relative="1" as="geometry">
            <mxPoint x="-247" y="65" as="sourcePoint" />
            <mxPoint x="-197" y="15" as="targetPoint" />
          </mxGeometry>
        </mxCell>
        <mxCell id="TdGyltSRt4Dew1mmWfEQ-30" value="" style="endArrow=classic;html=1;rounded=0;fontSize=12;startSize=8;endSize=8;curved=1;" edge="1" parent="1">
          <mxGeometry width="50" height="50" relative="1" as="geometry">
            <mxPoint x="-131" y="122" as="sourcePoint" />
            <mxPoint x="-131" y="53" as="targetPoint" />
          </mxGeometry>
        </mxCell>
        <mxCell id="TdGyltSRt4Dew1mmWfEQ-31" value="" style="endArrow=classic;html=1;rounded=0;fontSize=12;startSize=8;endSize=8;curved=1;exitX=0.5;exitY=0;exitDx=0;exitDy=0;" edge="1" parent="1" source="TdGyltSRt4Dew1mmWfEQ-11">
          <mxGeometry width="50" height="50" relative="1" as="geometry">
            <mxPoint x="-179" y="236" as="sourcePoint" />
            <mxPoint x="-129" y="186" as="targetPoint" />
          </mxGeometry>
        </mxCell>
        <mxCell id="TdGyltSRt4Dew1mmWfEQ-33" value="" style="endArrow=classic;html=1;rounded=0;fontSize=12;startSize=8;endSize=8;curved=1;" edge="1" parent="1">
          <mxGeometry width="50" height="50" relative="1" as="geometry">
            <mxPoint x="-168" y="332" as="sourcePoint" />
            <mxPoint x="-168" y="277" as="targetPoint" />
          </mxGeometry>
        </mxCell>
        <mxCell id="TdGyltSRt4Dew1mmWfEQ-36" value="" style="endArrow=classic;html=1;rounded=0;fontSize=12;startSize=8;endSize=8;curved=1;" edge="1" parent="1">
          <mxGeometry width="50" height="50" relative="1" as="geometry">
            <mxPoint x="-115" y="331" as="sourcePoint" />
            <mxPoint x="-115" y="278" as="targetPoint" />
          </mxGeometry>
        </mxCell>
        <mxCell id="TdGyltSRt4Dew1mmWfEQ-38" value="" style="endArrow=classic;html=1;rounded=0;fontSize=12;startSize=8;endSize=8;curved=1;entryX=0.75;entryY=1;entryDx=0;entryDy=0;" edge="1" parent="1" target="TdGyltSRt4Dew1mmWfEQ-11">
          <mxGeometry width="50" height="50" relative="1" as="geometry">
            <mxPoint x="-89" y="333" as="sourcePoint" />
            <mxPoint x="-89" y="280" as="targetPoint" />
          </mxGeometry>
        </mxCell>
        <mxCell id="TdGyltSRt4Dew1mmWfEQ-39" value="" style="endArrow=classic;html=1;rounded=0;fontSize=12;startSize=8;endSize=8;curved=1;entryX=0.416;entryY=1.049;entryDx=0;entryDy=0;entryPerimeter=0;" edge="1" parent="1" target="TdGyltSRt4Dew1mmWfEQ-11">
          <mxGeometry width="50" height="50" relative="1" as="geometry">
            <mxPoint x="-144" y="333.5" as="sourcePoint" />
            <mxPoint x="-144" y="281" as="targetPoint" />
          </mxGeometry>
        </mxCell>
        <mxCell id="TdGyltSRt4Dew1mmWfEQ-42" value="" style="endArrow=none;html=1;rounded=0;fontSize=12;startSize=8;endSize=8;curved=1;" edge="1" parent="1">
          <mxGeometry width="50" height="50" relative="1" as="geometry">
            <mxPoint x="-175" y="311" as="sourcePoint" />
            <mxPoint x="-161" y="298" as="targetPoint" />
          </mxGeometry>
        </mxCell>
        <mxCell id="TdGyltSRt4Dew1mmWfEQ-43" value="" style="endArrow=none;html=1;rounded=0;fontSize=12;startSize=8;endSize=8;curved=1;" edge="1" parent="1">
          <mxGeometry width="50" height="50" relative="1" as="geometry">
            <mxPoint x="-154" y="315" as="sourcePoint" />
            <mxPoint x="-132" y="298" as="targetPoint" />
          </mxGeometry>
        </mxCell>
        <mxCell id="TdGyltSRt4Dew1mmWfEQ-44" value="" style="endArrow=none;html=1;rounded=0;fontSize=12;startSize=8;endSize=8;curved=1;" edge="1" parent="1">
          <mxGeometry width="50" height="50" relative="1" as="geometry">
            <mxPoint x="-124" y="312" as="sourcePoint" />
            <mxPoint x="-103" y="297" as="targetPoint" />
          </mxGeometry>
        </mxCell>
        <mxCell id="TdGyltSRt4Dew1mmWfEQ-45" value="" style="endArrow=none;html=1;rounded=0;fontSize=12;startSize=8;endSize=8;curved=1;" edge="1" parent="1">
          <mxGeometry width="50" height="50" relative="1" as="geometry">
            <mxPoint x="-101" y="315" as="sourcePoint" />
            <mxPoint x="-72" y="299" as="targetPoint" />
          </mxGeometry>
        </mxCell>
        <mxCell id="TdGyltSRt4Dew1mmWfEQ-46" value="4" style="text;strokeColor=none;fillColor=none;html=1;align=center;verticalAlign=middle;whiteSpace=wrap;rounded=0;fontSize=12;" vertex="1" parent="1">
          <mxGeometry x="-213" y="288" width="60" height="30" as="geometry" />
        </mxCell>
        <mxCell id="TdGyltSRt4Dew1mmWfEQ-48" value="4" style="text;strokeColor=none;fillColor=none;html=1;align=center;verticalAlign=middle;whiteSpace=wrap;rounded=0;fontSize=12;" vertex="1" parent="1">
          <mxGeometry x="-182" y="288" width="60" height="30" as="geometry" />
        </mxCell>
        <mxCell id="TdGyltSRt4Dew1mmWfEQ-49" value="4" style="text;strokeColor=none;fillColor=none;html=1;align=center;verticalAlign=middle;whiteSpace=wrap;rounded=0;fontSize=12;" vertex="1" parent="1">
          <mxGeometry x="-153" y="286" width="60" height="30" as="geometry" />
        </mxCell>
        <mxCell id="TdGyltSRt4Dew1mmWfEQ-50" value="4" style="text;strokeColor=none;fillColor=none;html=1;align=center;verticalAlign=middle;whiteSpace=wrap;rounded=0;fontSize=12;" vertex="1" parent="1">
          <mxGeometry x="-126" y="286" width="60" height="30" as="geometry" />
        </mxCell>
        <mxCell id="TdGyltSRt4Dew1mmWfEQ-51" value="4" style="text;strokeColor=none;fillColor=none;html=1;align=center;verticalAlign=middle;whiteSpace=wrap;rounded=0;fontSize=12;" vertex="1" parent="1">
          <mxGeometry x="-168" y="198" width="60" height="30" as="geometry" />
        </mxCell>
        <mxCell id="TdGyltSRt4Dew1mmWfEQ-52" value="" style="endArrow=none;html=1;rounded=0;fontSize=12;startSize=8;endSize=8;curved=1;" edge="1" parent="1">
          <mxGeometry width="50" height="50" relative="1" as="geometry">
            <mxPoint x="-141" y="225" as="sourcePoint" />
            <mxPoint x="-119" y="212" as="targetPoint" />
          </mxGeometry>
        </mxCell>
        <mxCell id="TdGyltSRt4Dew1mmWfEQ-53" value="" style="endArrow=none;html=1;rounded=0;fontSize=12;startSize=8;endSize=8;curved=1;" edge="1" parent="1">
          <mxGeometry width="50" height="50" relative="1" as="geometry">
            <mxPoint x="-145" y="103" as="sourcePoint" />
            <mxPoint x="-117" y="78" as="targetPoint" />
          </mxGeometry>
        </mxCell>
        <mxCell id="TdGyltSRt4Dew1mmWfEQ-54" value="7" style="text;strokeColor=none;fillColor=none;html=1;align=center;verticalAlign=middle;whiteSpace=wrap;rounded=0;fontSize=12;" vertex="1" parent="1">
          <mxGeometry x="-172" y="69" width="60" height="30" as="geometry" />
        </mxCell>
        <mxCell id="TdGyltSRt4Dew1mmWfEQ-55" value="" style="endArrow=none;html=1;rounded=0;fontSize=12;startSize=8;endSize=8;curved=1;" edge="1" parent="1">
          <mxGeometry width="50" height="50" relative="1" as="geometry">
            <mxPoint x="-268" y="29" as="sourcePoint" />
            <mxPoint x="-247" y="2" as="targetPoint" />
          </mxGeometry>
        </mxCell>
        <mxCell id="TdGyltSRt4Dew1mmWfEQ-56" value="4" style="text;strokeColor=none;fillColor=none;html=1;align=center;verticalAlign=middle;whiteSpace=wrap;rounded=0;fontSize=12;" vertex="1" parent="1">
          <mxGeometry x="-280" y="12" width="60" height="30" as="geometry" />
        </mxCell>
        <mxCell id="TdGyltSRt4Dew1mmWfEQ-57" value="" style="endArrow=none;html=1;rounded=0;fontSize=12;startSize=8;endSize=8;curved=1;" edge="1" parent="1">
          <mxGeometry width="50" height="50" relative="1" as="geometry">
            <mxPoint x="-369" y="99" as="sourcePoint" />
            <mxPoint x="-346" y="79" as="targetPoint" />
          </mxGeometry>
        </mxCell>
        <mxCell id="TdGyltSRt4Dew1mmWfEQ-58" value="2" style="text;strokeColor=none;fillColor=none;html=1;align=center;verticalAlign=middle;whiteSpace=wrap;rounded=0;fontSize=12;" vertex="1" parent="1">
          <mxGeometry x="-396" y="69" width="60" height="30" as="geometry" />
        </mxCell>
        <mxCell id="TdGyltSRt4Dew1mmWfEQ-59" value="100Hz" style="text;strokeColor=none;fillColor=none;html=1;align=center;verticalAlign=middle;whiteSpace=wrap;rounded=0;fontSize=12;" vertex="1" parent="1">
          <mxGeometry x="-372" y="205" width="60" height="30" as="geometry" />
        </mxCell>
        <mxCell id="TdGyltSRt4Dew1mmWfEQ-60" value="100MHz&lt;div style=&quot;font-size: 12px;&quot;&gt;&lt;br style=&quot;font-size: 12px;&quot;&gt;&lt;/div&gt;" style="text;strokeColor=none;fillColor=none;html=1;align=center;verticalAlign=middle;whiteSpace=wrap;rounded=0;fontSize=12;" vertex="1" parent="1">
          <mxGeometry x="-495" y="295" width="60" height="30" as="geometry" />
        </mxCell>
        <mxCell id="TdGyltSRt4Dew1mmWfEQ-63" value="" style="endArrow=none;html=1;rounded=0;fontSize=12;startSize=8;endSize=8;curved=1;" edge="1" parent="1">
          <mxGeometry width="50" height="50" relative="1" as="geometry">
            <mxPoint x="-360" y="116" as="sourcePoint" />
            <mxPoint x="-255" y="116" as="targetPoint" />
          </mxGeometry>
        </mxCell>
        <mxCell id="TdGyltSRt4Dew1mmWfEQ-64" value="" style="endArrow=none;html=1;rounded=0;fontSize=12;startSize=8;endSize=8;curved=1;" edge="1" parent="1">
          <mxGeometry width="50" height="50" relative="1" as="geometry">
            <mxPoint x="-256" y="245" as="sourcePoint" />
            <mxPoint x="-256" y="117" as="targetPoint" />
          </mxGeometry>
        </mxCell>
        <mxCell id="TdGyltSRt4Dew1mmWfEQ-65" value="" style="endArrow=classic;html=1;rounded=0;fontSize=12;startSize=8;endSize=8;curved=1;entryX=0;entryY=0;entryDx=0;entryDy=0;" edge="1" parent="1" target="TdGyltSRt4Dew1mmWfEQ-11">
          <mxGeometry width="50" height="50" relative="1" as="geometry">
            <mxPoint x="-257" y="245" as="sourcePoint" />
            <mxPoint x="-207" y="195" as="targetPoint" />
          </mxGeometry>
        </mxCell>
        <mxCell id="TdGyltSRt4Dew1mmWfEQ-69" value="" style="rounded=0;whiteSpace=wrap;html=1;" vertex="1" parent="1">
          <mxGeometry x="34" y="30" width="120" height="60" as="geometry" />
        </mxCell>
        <mxCell id="TdGyltSRt4Dew1mmWfEQ-74" value="Alarm Hour Reg" style="text;strokeColor=none;fillColor=none;html=1;align=center;verticalAlign=middle;whiteSpace=wrap;rounded=0;fontSize=12;" vertex="1" parent="1">
          <mxGeometry x="61" y="45" width="60" height="30" as="geometry" />
        </mxCell>
        <mxCell id="TdGyltSRt4Dew1mmWfEQ-78" value="En" style="text;strokeColor=none;fillColor=none;html=1;align=center;verticalAlign=middle;whiteSpace=wrap;rounded=0;fontSize=14;" vertex="1" parent="1">
          <mxGeometry x="129" y="30" width="25" height="15" as="geometry" />
        </mxCell>
        <mxCell id="TdGyltSRt4Dew1mmWfEQ-79" value="Load" style="text;strokeColor=none;fillColor=none;html=1;align=center;verticalAlign=middle;whiteSpace=wrap;rounded=0;fontSize=14;" vertex="1" parent="1">
          <mxGeometry x="121" y="70" width="35" height="22" as="geometry" />
        </mxCell>
        <mxCell id="TdGyltSRt4Dew1mmWfEQ-84" value="" style="rounded=0;whiteSpace=wrap;html=1;" vertex="1" parent="1">
          <mxGeometry x="321" y="30" width="120" height="60" as="geometry" />
        </mxCell>
        <mxCell id="TdGyltSRt4Dew1mmWfEQ-85" value="Alarm Minutes Reg" style="text;strokeColor=none;fillColor=none;html=1;align=center;verticalAlign=middle;whiteSpace=wrap;rounded=0;fontSize=12;" vertex="1" parent="1">
          <mxGeometry x="348" y="45" width="60" height="30" as="geometry" />
        </mxCell>
        <mxCell id="TdGyltSRt4Dew1mmWfEQ-86" value="En" style="text;strokeColor=none;fillColor=none;html=1;align=center;verticalAlign=middle;whiteSpace=wrap;rounded=0;fontSize=14;" vertex="1" parent="1">
          <mxGeometry x="416" y="30" width="25" height="15" as="geometry" />
        </mxCell>
        <mxCell id="TdGyltSRt4Dew1mmWfEQ-87" value="Load" style="text;strokeColor=none;fillColor=none;html=1;align=center;verticalAlign=middle;whiteSpace=wrap;rounded=0;fontSize=14;" vertex="1" parent="1">
          <mxGeometry x="408" y="70" width="35" height="22" as="geometry" />
        </mxCell>
        <mxCell id="TdGyltSRt4Dew1mmWfEQ-88" value="" style="rounded=0;whiteSpace=wrap;html=1;" vertex="1" parent="1">
          <mxGeometry x="625" y="34" width="120" height="60" as="geometry" />
        </mxCell>
        <mxCell id="TdGyltSRt4Dew1mmWfEQ-89" value="Hour Setup Reg" style="text;strokeColor=none;fillColor=none;html=1;align=center;verticalAlign=middle;whiteSpace=wrap;rounded=0;fontSize=12;" vertex="1" parent="1">
          <mxGeometry x="652" y="49" width="60" height="30" as="geometry" />
        </mxCell>
        <mxCell id="TdGyltSRt4Dew1mmWfEQ-90" value="En" style="text;strokeColor=none;fillColor=none;html=1;align=center;verticalAlign=middle;whiteSpace=wrap;rounded=0;fontSize=14;" vertex="1" parent="1">
          <mxGeometry x="720" y="34" width="25" height="15" as="geometry" />
        </mxCell>
        <mxCell id="TdGyltSRt4Dew1mmWfEQ-91" value="Load" style="text;strokeColor=none;fillColor=none;html=1;align=center;verticalAlign=middle;whiteSpace=wrap;rounded=0;fontSize=14;" vertex="1" parent="1">
          <mxGeometry x="712" y="74" width="35" height="22" as="geometry" />
        </mxCell>
        <mxCell id="TdGyltSRt4Dew1mmWfEQ-92" value="" style="rounded=0;whiteSpace=wrap;html=1;" vertex="1" parent="1">
          <mxGeometry x="961" y="37" width="120" height="60" as="geometry" />
        </mxCell>
        <mxCell id="TdGyltSRt4Dew1mmWfEQ-93" value="Minutes Setup Reg" style="text;strokeColor=none;fillColor=none;html=1;align=center;verticalAlign=middle;whiteSpace=wrap;rounded=0;fontSize=12;" vertex="1" parent="1">
          <mxGeometry x="988" y="52" width="60" height="30" as="geometry" />
        </mxCell>
        <mxCell id="TdGyltSRt4Dew1mmWfEQ-94" value="En" style="text;strokeColor=none;fillColor=none;html=1;align=center;verticalAlign=middle;whiteSpace=wrap;rounded=0;fontSize=14;" vertex="1" parent="1">
          <mxGeometry x="1056" y="37" width="25" height="15" as="geometry" />
        </mxCell>
        <mxCell id="TdGyltSRt4Dew1mmWfEQ-95" value="Load" style="text;strokeColor=none;fillColor=none;html=1;align=center;verticalAlign=middle;whiteSpace=wrap;rounded=0;fontSize=14;" vertex="1" parent="1">
          <mxGeometry x="1048" y="77" width="35" height="22" as="geometry" />
        </mxCell>
        <mxCell id="TdGyltSRt4Dew1mmWfEQ-96" value="" style="endArrow=classic;html=1;rounded=0;fontSize=12;startSize=8;endSize=8;curved=1;entryX=0.75;entryY=0;entryDx=0;entryDy=0;" edge="1" parent="1" target="TdGyltSRt4Dew1mmWfEQ-78">
          <mxGeometry width="50" height="50" relative="1" as="geometry">
            <mxPoint x="148" y="-2" as="sourcePoint" />
            <mxPoint x="150" y="4" as="targetPoint" />
          </mxGeometry>
        </mxCell>
        <mxCell id="TdGyltSRt4Dew1mmWfEQ-97" value="LD14" style="text;strokeColor=none;fillColor=none;html=1;align=center;verticalAlign=middle;whiteSpace=wrap;rounded=0;fontSize=12;" vertex="1" parent="1">
          <mxGeometry x="117" y="-24" width="60" height="30" as="geometry" />
        </mxCell>
        <mxCell id="TdGyltSRt4Dew1mmWfEQ-98" style="edgeStyle=none;curved=1;rounded=0;orthogonalLoop=1;jettySize=auto;html=1;exitX=0;exitY=0;exitDx=0;exitDy=0;fontSize=12;startSize=8;endSize=8;" edge="1" parent="1" source="TdGyltSRt4Dew1mmWfEQ-97" target="TdGyltSRt4Dew1mmWfEQ-97">
          <mxGeometry relative="1" as="geometry" />
        </mxCell>
        <mxCell id="TdGyltSRt4Dew1mmWfEQ-99" value="" style="endArrow=classic;html=1;rounded=0;fontSize=12;startSize=8;endSize=8;curved=1;entryX=0.5;entryY=0;entryDx=0;entryDy=0;" edge="1" parent="1" target="TdGyltSRt4Dew1mmWfEQ-86">
          <mxGeometry width="50" height="50" relative="1" as="geometry">
            <mxPoint x="429" as="sourcePoint" />
            <mxPoint x="430" y="-50" as="targetPoint" />
          </mxGeometry>
        </mxCell>
        <mxCell id="TdGyltSRt4Dew1mmWfEQ-100" value="&lt;font style=&quot;font-size: 12px;&quot;&gt;LD15&lt;/font&gt;" style="text;strokeColor=none;fillColor=none;html=1;align=center;verticalAlign=middle;whiteSpace=wrap;rounded=0;fontSize=16;" vertex="1" parent="1">
          <mxGeometry x="398.5" y="-24" width="60" height="30" as="geometry" />
        </mxCell>
        <mxCell id="TdGyltSRt4Dew1mmWfEQ-101" value="" style="endArrow=classic;html=1;rounded=0;fontSize=12;startSize=8;endSize=8;curved=1;entryX=0.5;entryY=0;entryDx=0;entryDy=0;" edge="1" parent="1" target="TdGyltSRt4Dew1mmWfEQ-90">
          <mxGeometry width="50" height="50" relative="1" as="geometry">
            <mxPoint x="733" y="1" as="sourcePoint" />
            <mxPoint x="734" y="-42" as="targetPoint" />
          </mxGeometry>
        </mxCell>
        <mxCell id="TdGyltSRt4Dew1mmWfEQ-102" value="LD12" style="text;strokeColor=none;fillColor=none;html=1;align=center;verticalAlign=middle;whiteSpace=wrap;rounded=0;fontSize=12;" vertex="1" parent="1">
          <mxGeometry x="702.5" y="-22" width="60" height="30" as="geometry" />
        </mxCell>
        <mxCell id="TdGyltSRt4Dew1mmWfEQ-103" value="LD13" style="text;strokeColor=none;fillColor=none;html=1;align=center;verticalAlign=middle;whiteSpace=wrap;rounded=0;fontSize=12;" vertex="1" parent="1">
          <mxGeometry x="1045" y="-18" width="60" height="30" as="geometry" />
        </mxCell>
        <mxCell id="TdGyltSRt4Dew1mmWfEQ-104" value="" style="endArrow=classic;html=1;rounded=0;fontSize=12;startSize=8;endSize=8;curved=1;entryX=0.75;entryY=0;entryDx=0;entryDy=0;" edge="1" parent="1" target="TdGyltSRt4Dew1mmWfEQ-94">
          <mxGeometry width="50" height="50" relative="1" as="geometry">
            <mxPoint x="1075" y="7" as="sourcePoint" />
            <mxPoint x="1077" y="-43" as="targetPoint" />
          </mxGeometry>
        </mxCell>
        <mxCell id="TdGyltSRt4Dew1mmWfEQ-105" value="" style="shape=trapezoid;perimeter=trapezoidPerimeter;whiteSpace=wrap;html=1;fixedSize=1;direction=west;" vertex="1" parent="1">
          <mxGeometry x="173" y="218" width="120" height="60" as="geometry" />
        </mxCell>
        <mxCell id="TdGyltSRt4Dew1mmWfEQ-107" value="" style="shape=trapezoid;perimeter=trapezoidPerimeter;whiteSpace=wrap;html=1;fixedSize=1;direction=west;" vertex="1" parent="1">
          <mxGeometry x="485" y="406" width="120" height="60" as="geometry" />
        </mxCell>
        <mxCell id="TdGyltSRt4Dew1mmWfEQ-108" value="" style="endArrow=none;html=1;rounded=0;fontSize=12;startSize=8;endSize=8;curved=1;" edge="1" parent="1">
          <mxGeometry width="50" height="50" relative="1" as="geometry">
            <mxPoint x="92" y="169" as="sourcePoint" />
            <mxPoint x="95" y="90" as="targetPoint" />
          </mxGeometry>
        </mxCell>
        <mxCell id="TdGyltSRt4Dew1mmWfEQ-109" value="" style="endArrow=none;html=1;rounded=0;fontSize=12;startSize=8;endSize=8;curved=1;" edge="1" parent="1">
          <mxGeometry width="50" height="50" relative="1" as="geometry">
            <mxPoint x="93" y="170" as="sourcePoint" />
            <mxPoint x="215" y="170" as="targetPoint" />
          </mxGeometry>
        </mxCell>
        <mxCell id="TdGyltSRt4Dew1mmWfEQ-110" value="" style="endArrow=classic;html=1;rounded=0;fontSize=12;startSize=8;endSize=8;curved=1;" edge="1" parent="1">
          <mxGeometry width="50" height="50" relative="1" as="geometry">
            <mxPoint x="213" y="170" as="sourcePoint" />
            <mxPoint x="213" y="222" as="targetPoint" />
          </mxGeometry>
        </mxCell>
        <mxCell id="TdGyltSRt4Dew1mmWfEQ-111" value="" style="endArrow=none;html=1;rounded=0;fontSize=12;startSize=8;endSize=8;curved=1;" edge="1" parent="1">
          <mxGeometry width="50" height="50" relative="1" as="geometry">
            <mxPoint x="341" y="173" as="sourcePoint" />
            <mxPoint x="341" y="92" as="targetPoint" />
          </mxGeometry>
        </mxCell>
        <mxCell id="TdGyltSRt4Dew1mmWfEQ-119" value="" style="endArrow=none;html=1;rounded=0;fontSize=12;startSize=8;endSize=8;curved=1;" edge="1" parent="1">
          <mxGeometry width="50" height="50" relative="1" as="geometry">
            <mxPoint x="276" y="170" as="sourcePoint" />
            <mxPoint x="343" y="170" as="targetPoint" />
          </mxGeometry>
        </mxCell>
        <mxCell id="TdGyltSRt4Dew1mmWfEQ-120" value="" style="endArrow=classic;html=1;rounded=0;fontSize=12;startSize=8;endSize=8;curved=1;entryX=0.167;entryY=0.967;entryDx=0;entryDy=0;entryPerimeter=0;" edge="1" parent="1" target="TdGyltSRt4Dew1mmWfEQ-105">
          <mxGeometry width="50" height="50" relative="1" as="geometry">
            <mxPoint x="275" y="170" as="sourcePoint" />
            <mxPoint x="325" y="120" as="targetPoint" />
          </mxGeometry>
        </mxCell>
        <mxCell id="TdGyltSRt4Dew1mmWfEQ-126" value="" style="shape=trapezoid;perimeter=trapezoidPerimeter;whiteSpace=wrap;html=1;fixedSize=1;direction=west;" vertex="1" parent="1">
          <mxGeometry x="800" y="233" width="120" height="60" as="geometry" />
        </mxCell>
        <mxCell id="TdGyltSRt4Dew1mmWfEQ-127" value="" style="endArrow=none;html=1;rounded=0;fontSize=12;startSize=8;endSize=8;curved=1;" edge="1" parent="1">
          <mxGeometry width="50" height="50" relative="1" as="geometry">
            <mxPoint x="684" y="185" as="sourcePoint" />
            <mxPoint x="842" y="185" as="targetPoint" />
          </mxGeometry>
        </mxCell>
        <mxCell id="TdGyltSRt4Dew1mmWfEQ-128" value="" style="endArrow=classic;html=1;rounded=0;fontSize=12;startSize=8;endSize=8;curved=1;" edge="1" parent="1">
          <mxGeometry width="50" height="50" relative="1" as="geometry">
            <mxPoint x="840" y="185" as="sourcePoint" />
            <mxPoint x="840" y="237" as="targetPoint" />
          </mxGeometry>
        </mxCell>
        <mxCell id="TdGyltSRt4Dew1mmWfEQ-129" value="" style="endArrow=none;html=1;rounded=0;fontSize=12;startSize=8;endSize=8;curved=1;" edge="1" parent="1">
          <mxGeometry width="50" height="50" relative="1" as="geometry">
            <mxPoint x="903" y="185" as="sourcePoint" />
            <mxPoint x="970" y="185" as="targetPoint" />
          </mxGeometry>
        </mxCell>
        <mxCell id="TdGyltSRt4Dew1mmWfEQ-130" value="" style="endArrow=classic;html=1;rounded=0;fontSize=12;startSize=8;endSize=8;curved=1;entryX=0.167;entryY=0.967;entryDx=0;entryDy=0;entryPerimeter=0;" edge="1" parent="1" target="TdGyltSRt4Dew1mmWfEQ-126">
          <mxGeometry width="50" height="50" relative="1" as="geometry">
            <mxPoint x="902" y="185" as="sourcePoint" />
            <mxPoint x="952" y="135" as="targetPoint" />
          </mxGeometry>
        </mxCell>
        <mxCell id="TdGyltSRt4Dew1mmWfEQ-131" value="" style="endArrow=none;html=1;rounded=0;fontSize=12;startSize=8;endSize=8;curved=1;entryX=0.083;entryY=1;entryDx=0;entryDy=0;entryPerimeter=0;" edge="1" parent="1" target="TdGyltSRt4Dew1mmWfEQ-92">
          <mxGeometry width="50" height="50" relative="1" as="geometry">
            <mxPoint x="971" y="183" as="sourcePoint" />
            <mxPoint x="979" y="99" as="targetPoint" />
          </mxGeometry>
        </mxCell>
        <mxCell id="TdGyltSRt4Dew1mmWfEQ-132" value="" style="endArrow=none;html=1;rounded=0;fontSize=12;startSize=8;endSize=8;curved=1;entryX=0.5;entryY=1;entryDx=0;entryDy=0;" edge="1" parent="1" target="TdGyltSRt4Dew1mmWfEQ-88">
          <mxGeometry width="50" height="50" relative="1" as="geometry">
            <mxPoint x="685" y="182" as="sourcePoint" />
            <mxPoint x="675" y="94" as="targetPoint" />
          </mxGeometry>
        </mxCell>
        <mxCell id="TdGyltSRt4Dew1mmWfEQ-133" value="" style="endArrow=none;html=1;rounded=0;fontSize=12;startSize=8;endSize=8;curved=1;" edge="1" parent="1">
          <mxGeometry width="50" height="50" relative="1" as="geometry">
            <mxPoint x="861" y="357" as="sourcePoint" />
            <mxPoint x="861" y="291" as="targetPoint" />
          </mxGeometry>
        </mxCell>
        <mxCell id="TdGyltSRt4Dew1mmWfEQ-134" value="" style="endArrow=none;html=1;rounded=0;fontSize=12;startSize=8;endSize=8;curved=1;" edge="1" parent="1">
          <mxGeometry width="50" height="50" relative="1" as="geometry">
            <mxPoint x="583" y="356" as="sourcePoint" />
            <mxPoint x="861" y="356" as="targetPoint" />
          </mxGeometry>
        </mxCell>
        <mxCell id="TdGyltSRt4Dew1mmWfEQ-136" value="" style="endArrow=none;html=1;rounded=0;fontSize=12;startSize=8;endSize=8;curved=1;" edge="1" parent="1">
          <mxGeometry width="50" height="50" relative="1" as="geometry">
            <mxPoint x="260" y="351" as="sourcePoint" />
            <mxPoint x="258" y="276" as="targetPoint" />
          </mxGeometry>
        </mxCell>
        <mxCell id="TdGyltSRt4Dew1mmWfEQ-137" value="" style="endArrow=none;html=1;rounded=0;fontSize=12;startSize=8;endSize=8;curved=1;" edge="1" parent="1">
          <mxGeometry width="50" height="50" relative="1" as="geometry">
            <mxPoint x="258" y="351" as="sourcePoint" />
            <mxPoint x="501" y="348" as="targetPoint" />
          </mxGeometry>
        </mxCell>
        <mxCell id="TdGyltSRt4Dew1mmWfEQ-139" value="" style="endArrow=classic;html=1;rounded=0;fontSize=12;startSize=8;endSize=8;curved=1;entryX=0.192;entryY=0.95;entryDx=0;entryDy=0;entryPerimeter=0;" edge="1" parent="1" target="TdGyltSRt4Dew1mmWfEQ-107">
          <mxGeometry width="50" height="50" relative="1" as="geometry">
            <mxPoint x="583" y="357" as="sourcePoint" />
            <mxPoint x="633" y="307" as="targetPoint" />
          </mxGeometry>
        </mxCell>
        <mxCell id="TdGyltSRt4Dew1mmWfEQ-140" value="" style="endArrow=classic;html=1;rounded=0;fontSize=12;startSize=8;endSize=8;curved=1;entryX=0.858;entryY=0.95;entryDx=0;entryDy=0;entryPerimeter=0;" edge="1" parent="1" target="TdGyltSRt4Dew1mmWfEQ-107">
          <mxGeometry width="50" height="50" relative="1" as="geometry">
            <mxPoint x="500" y="349" as="sourcePoint" />
            <mxPoint x="550" y="299" as="targetPoint" />
          </mxGeometry>
        </mxCell>
        <mxCell id="TdGyltSRt4Dew1mmWfEQ-142" value="0" style="text;strokeColor=none;fillColor=none;html=1;align=center;verticalAlign=middle;whiteSpace=wrap;rounded=0;fontSize=16;" vertex="1" parent="1">
          <mxGeometry x="240" y="222" width="60" height="30" as="geometry" />
        </mxCell>
        <mxCell id="TdGyltSRt4Dew1mmWfEQ-143" value="1" style="text;strokeColor=none;fillColor=none;html=1;align=center;verticalAlign=middle;whiteSpace=wrap;rounded=0;fontSize=16;" vertex="1" parent="1">
          <mxGeometry x="184" y="222" width="60" height="30" as="geometry" />
        </mxCell>
        <mxCell id="TdGyltSRt4Dew1mmWfEQ-144" value="0" style="text;strokeColor=none;fillColor=none;html=1;align=center;verticalAlign=middle;whiteSpace=wrap;rounded=0;fontSize=16;" vertex="1" parent="1">
          <mxGeometry x="870" y="235" width="60" height="30" as="geometry" />
        </mxCell>
        <mxCell id="TdGyltSRt4Dew1mmWfEQ-145" value="1" style="text;strokeColor=none;fillColor=none;html=1;align=center;verticalAlign=middle;whiteSpace=wrap;rounded=0;fontSize=16;" vertex="1" parent="1">
          <mxGeometry x="812" y="233" width="60" height="30" as="geometry" />
        </mxCell>
        <mxCell id="TdGyltSRt4Dew1mmWfEQ-147" value="" style="endArrow=classic;html=1;rounded=0;fontSize=12;startSize=8;endSize=8;curved=1;entryX=0;entryY=0.25;entryDx=0;entryDy=0;" edge="1" parent="1" target="TdGyltSRt4Dew1mmWfEQ-105">
          <mxGeometry width="50" height="50" relative="1" as="geometry">
            <mxPoint x="359" y="260" as="sourcePoint" />
            <mxPoint x="395" y="225" as="targetPoint" />
          </mxGeometry>
        </mxCell>
        <mxCell id="TdGyltSRt4Dew1mmWfEQ-148" value="" style="endArrow=classic;html=1;rounded=0;fontSize=12;startSize=8;endSize=8;curved=1;entryX=0;entryY=0.25;entryDx=0;entryDy=0;" edge="1" parent="1" target="TdGyltSRt4Dew1mmWfEQ-126">
          <mxGeometry width="50" height="50" relative="1" as="geometry">
            <mxPoint x="975" y="272" as="sourcePoint" />
            <mxPoint x="1020" y="228" as="targetPoint" />
          </mxGeometry>
        </mxCell>
        <mxCell id="TdGyltSRt4Dew1mmWfEQ-149" value="LD14" style="text;strokeColor=none;fillColor=none;html=1;align=center;verticalAlign=middle;whiteSpace=wrap;rounded=0;fontSize=16;" vertex="1" parent="1">
          <mxGeometry x="346" y="246" width="60" height="30" as="geometry" />
        </mxCell>
        <mxCell id="TdGyltSRt4Dew1mmWfEQ-150" value="LD12" style="text;strokeColor=none;fillColor=none;html=1;align=center;verticalAlign=middle;whiteSpace=wrap;rounded=0;fontSize=16;" vertex="1" parent="1">
          <mxGeometry x="964" y="258" width="60" height="30" as="geometry" />
        </mxCell>
        <mxCell id="TdGyltSRt4Dew1mmWfEQ-151" value="" style="shape=xor;whiteSpace=wrap;html=1;direction=west;" vertex="1" parent="1">
          <mxGeometry x="667" y="399" width="60" height="80" as="geometry" />
        </mxCell>
        <mxCell id="TdGyltSRt4Dew1mmWfEQ-152" value="" style="endArrow=classic;html=1;rounded=0;fontSize=12;startSize=8;endSize=8;curved=1;entryX=0.033;entryY=0.888;entryDx=0;entryDy=0;entryPerimeter=0;" edge="1" parent="1" target="TdGyltSRt4Dew1mmWfEQ-151">
          <mxGeometry width="50" height="50" relative="1" as="geometry">
            <mxPoint x="819" y="408" as="sourcePoint" />
            <mxPoint x="862" y="361" as="targetPoint" />
          </mxGeometry>
        </mxCell>
        <mxCell id="TdGyltSRt4Dew1mmWfEQ-153" value="" style="endArrow=classic;html=1;rounded=0;fontSize=12;startSize=8;endSize=8;curved=1;entryX=0.067;entryY=0.1;entryDx=0;entryDy=0;entryPerimeter=0;" edge="1" parent="1" target="TdGyltSRt4Dew1mmWfEQ-151">
          <mxGeometry width="50" height="50" relative="1" as="geometry">
            <mxPoint x="819" y="471" as="sourcePoint" />
            <mxPoint x="862" y="425" as="targetPoint" />
          </mxGeometry>
        </mxCell>
        <mxCell id="TdGyltSRt4Dew1mmWfEQ-154" value="LD14" style="text;strokeColor=none;fillColor=none;html=1;align=center;verticalAlign=middle;whiteSpace=wrap;rounded=0;fontSize=16;" vertex="1" parent="1">
          <mxGeometry x="807" y="394" width="60" height="30" as="geometry" />
        </mxCell>
        <mxCell id="TdGyltSRt4Dew1mmWfEQ-155" value="LD15" style="text;strokeColor=none;fillColor=none;html=1;align=center;verticalAlign=middle;whiteSpace=wrap;rounded=0;fontSize=16;" vertex="1" parent="1">
          <mxGeometry x="810" y="455" width="60" height="30" as="geometry" />
        </mxCell>
        <mxCell id="TdGyltSRt4Dew1mmWfEQ-156" value="" style="endArrow=classic;html=1;rounded=0;fontSize=12;startSize=8;endSize=8;curved=1;entryX=0;entryY=0.5;entryDx=0;entryDy=0;" edge="1" parent="1" target="TdGyltSRt4Dew1mmWfEQ-107">
          <mxGeometry width="50" height="50" relative="1" as="geometry">
            <mxPoint x="665" y="434" as="sourcePoint" />
            <mxPoint x="715" y="384" as="targetPoint" />
          </mxGeometry>
        </mxCell>
        <mxCell id="TdGyltSRt4Dew1mmWfEQ-157" value="0" style="text;strokeColor=none;fillColor=none;html=1;align=center;verticalAlign=middle;whiteSpace=wrap;rounded=0;fontSize=16;" vertex="1" parent="1">
          <mxGeometry x="554" y="408" width="60" height="30" as="geometry" />
        </mxCell>
        <mxCell id="TdGyltSRt4Dew1mmWfEQ-158" value="1" style="text;strokeColor=none;fillColor=none;html=1;align=center;verticalAlign=middle;whiteSpace=wrap;rounded=0;fontSize=16;" vertex="1" parent="1">
          <mxGeometry x="472" y="408" width="60" height="30" as="geometry" />
        </mxCell>
        <mxCell id="TdGyltSRt4Dew1mmWfEQ-159" value="" style="rounded=0;whiteSpace=wrap;html=1;" vertex="1" parent="1">
          <mxGeometry x="482" y="588" width="120" height="60" as="geometry" />
        </mxCell>
        <mxCell id="TdGyltSRt4Dew1mmWfEQ-160" value="Up &amp;amp; Down Counter" style="text;strokeColor=none;fillColor=none;html=1;align=center;verticalAlign=middle;whiteSpace=wrap;rounded=0;fontSize=14;" vertex="1" parent="1">
          <mxGeometry x="512" y="603" width="60" height="30" as="geometry" />
        </mxCell>
        <mxCell id="TdGyltSRt4Dew1mmWfEQ-161" value="" style="triangle;whiteSpace=wrap;html=1;" vertex="1" parent="1">
          <mxGeometry x="482" y="621" width="23" height="27" as="geometry" />
        </mxCell>
        <mxCell id="TdGyltSRt4Dew1mmWfEQ-162" value="Load" style="text;strokeColor=none;fillColor=none;html=1;align=center;verticalAlign=middle;whiteSpace=wrap;rounded=0;fontSize=12;" vertex="1" parent="1">
          <mxGeometry x="485" y="592" width="27" height="11" as="geometry" />
        </mxCell>
        <mxCell id="TdGyltSRt4Dew1mmWfEQ-163" value="" style="endArrow=classic;html=1;rounded=0;fontSize=12;startSize=8;endSize=8;curved=1;exitX=0.75;exitY=0;exitDx=0;exitDy=0;entryX=1;entryY=0;entryDx=0;entryDy=0;" edge="1" parent="1" source="TdGyltSRt4Dew1mmWfEQ-107" target="TdGyltSRt4Dew1mmWfEQ-162">
          <mxGeometry width="50" height="50" relative="1" as="geometry">
            <mxPoint x="532" y="466" as="sourcePoint" />
            <mxPoint x="529" y="545" as="targetPoint" />
          </mxGeometry>
        </mxCell>
        <mxCell id="TdGyltSRt4Dew1mmWfEQ-164" value="En" style="text;strokeColor=none;fillColor=none;html=1;align=center;verticalAlign=middle;whiteSpace=wrap;rounded=0;fontSize=12;" vertex="1" parent="1">
          <mxGeometry x="584" y="592" width="16" height="13" as="geometry" />
        </mxCell>
        <mxCell id="TdGyltSRt4Dew1mmWfEQ-171" value="" style="shape=xor;whiteSpace=wrap;html=1;direction=west;" vertex="1" parent="1">
          <mxGeometry x="679" y="558" width="60" height="80" as="geometry" />
        </mxCell>
        <mxCell id="TdGyltSRt4Dew1mmWfEQ-172" value="" style="endArrow=classic;html=1;rounded=0;fontSize=12;startSize=8;endSize=8;curved=1;entryX=0.033;entryY=0.888;entryDx=0;entryDy=0;entryPerimeter=0;" edge="1" parent="1" target="TdGyltSRt4Dew1mmWfEQ-171">
          <mxGeometry width="50" height="50" relative="1" as="geometry">
            <mxPoint x="831" y="567" as="sourcePoint" />
            <mxPoint x="874" y="520" as="targetPoint" />
          </mxGeometry>
        </mxCell>
        <mxCell id="TdGyltSRt4Dew1mmWfEQ-173" value="" style="endArrow=classic;html=1;rounded=0;fontSize=12;startSize=8;endSize=8;curved=1;entryX=0.067;entryY=0.1;entryDx=0;entryDy=0;entryPerimeter=0;" edge="1" parent="1" target="TdGyltSRt4Dew1mmWfEQ-171">
          <mxGeometry width="50" height="50" relative="1" as="geometry">
            <mxPoint x="831" y="630" as="sourcePoint" />
            <mxPoint x="874" y="584" as="targetPoint" />
          </mxGeometry>
        </mxCell>
        <mxCell id="TdGyltSRt4Dew1mmWfEQ-174" value="Inc" style="text;strokeColor=none;fillColor=none;html=1;align=center;verticalAlign=middle;whiteSpace=wrap;rounded=0;fontSize=16;" vertex="1" parent="1">
          <mxGeometry x="819" y="553" width="60" height="30" as="geometry" />
        </mxCell>
        <mxCell id="TdGyltSRt4Dew1mmWfEQ-175" value="Dec" style="text;strokeColor=none;fillColor=none;html=1;align=center;verticalAlign=middle;whiteSpace=wrap;rounded=0;fontSize=16;" vertex="1" parent="1">
          <mxGeometry x="822" y="614" width="60" height="30" as="geometry" />
        </mxCell>
        <mxCell id="TdGyltSRt4Dew1mmWfEQ-176" value="" style="endArrow=classic;html=1;rounded=0;fontSize=12;startSize=8;endSize=8;curved=1;entryX=1;entryY=0.5;entryDx=0;entryDy=0;" edge="1" parent="1" target="TdGyltSRt4Dew1mmWfEQ-164">
          <mxGeometry width="50" height="50" relative="1" as="geometry">
            <mxPoint x="677" y="597" as="sourcePoint" />
            <mxPoint x="727" y="547" as="targetPoint" />
          </mxGeometry>
        </mxCell>
        <mxCell id="TdGyltSRt4Dew1mmWfEQ-178" value="" style="endArrow=none;html=1;rounded=0;fontSize=12;startSize=8;endSize=8;curved=1;" edge="1" parent="1">
          <mxGeometry width="50" height="50" relative="1" as="geometry">
            <mxPoint x="564" y="648" as="sourcePoint" />
            <mxPoint x="564" y="700" as="targetPoint" />
          </mxGeometry>
        </mxCell>
        <mxCell id="TdGyltSRt4Dew1mmWfEQ-179" value="" style="endArrow=none;html=1;rounded=0;fontSize=12;startSize=8;endSize=8;curved=1;" edge="1" parent="1">
          <mxGeometry width="50" height="50" relative="1" as="geometry">
            <mxPoint x="564" y="700" as="sourcePoint" />
            <mxPoint x="1079" y="696" as="targetPoint" />
          </mxGeometry>
        </mxCell>
        <mxCell id="TdGyltSRt4Dew1mmWfEQ-180" value="" style="endArrow=classic;html=1;rounded=0;fontSize=12;startSize=8;endSize=8;curved=1;entryX=0.25;entryY=1;entryDx=0;entryDy=0;" edge="1" parent="1" target="TdGyltSRt4Dew1mmWfEQ-95">
          <mxGeometry width="50" height="50" relative="1" as="geometry">
            <mxPoint x="1075" y="696" as="sourcePoint" />
            <mxPoint x="1125" y="646" as="targetPoint" />
          </mxGeometry>
        </mxCell>
        <mxCell id="TdGyltSRt4Dew1mmWfEQ-181" value="" style="endArrow=none;html=1;rounded=0;fontSize=12;startSize=8;endSize=8;curved=1;" edge="1" parent="1">
          <mxGeometry width="50" height="50" relative="1" as="geometry">
            <mxPoint x="1061" y="161" as="sourcePoint" />
            <mxPoint x="1127" y="159" as="targetPoint" />
          </mxGeometry>
        </mxCell>
        <mxCell id="TdGyltSRt4Dew1mmWfEQ-182" value="" style="endArrow=none;html=1;rounded=0;fontSize=12;startSize=8;endSize=8;curved=1;" edge="1" parent="1">
          <mxGeometry width="50" height="50" relative="1" as="geometry">
            <mxPoint x="1122" y="161" as="sourcePoint" />
            <mxPoint x="1122" y="-38" as="targetPoint" />
          </mxGeometry>
        </mxCell>
        <mxCell id="TdGyltSRt4Dew1mmWfEQ-183" value="" style="endArrow=none;html=1;rounded=0;fontSize=12;startSize=8;endSize=8;curved=1;" edge="1" parent="1">
          <mxGeometry width="50" height="50" relative="1" as="geometry">
            <mxPoint x="808" y="-34" as="sourcePoint" />
            <mxPoint x="1120" y="-38" as="targetPoint" />
          </mxGeometry>
        </mxCell>
        <mxCell id="TdGyltSRt4Dew1mmWfEQ-184" value="" style="endArrow=none;html=1;rounded=0;fontSize=12;startSize=8;endSize=8;curved=1;" edge="1" parent="1">
          <mxGeometry width="50" height="50" relative="1" as="geometry">
            <mxPoint x="810" y="123" as="sourcePoint" />
            <mxPoint x="810" y="-34" as="targetPoint" />
          </mxGeometry>
        </mxCell>
        <mxCell id="TdGyltSRt4Dew1mmWfEQ-185" value="" style="endArrow=none;html=1;rounded=0;fontSize=12;startSize=8;endSize=8;curved=1;" edge="1" parent="1">
          <mxGeometry width="50" height="50" relative="1" as="geometry">
            <mxPoint x="723" y="123" as="sourcePoint" />
            <mxPoint x="810" y="120" as="targetPoint" />
          </mxGeometry>
        </mxCell>
        <mxCell id="TdGyltSRt4Dew1mmWfEQ-186" value="" style="endArrow=classic;html=1;rounded=0;fontSize=12;startSize=8;endSize=8;curved=1;entryX=0.25;entryY=1;entryDx=0;entryDy=0;" edge="1" parent="1" target="TdGyltSRt4Dew1mmWfEQ-91">
          <mxGeometry width="50" height="50" relative="1" as="geometry">
            <mxPoint x="720" y="125" as="sourcePoint" />
            <mxPoint x="770" y="75" as="targetPoint" />
          </mxGeometry>
        </mxCell>
        <mxCell id="TdGyltSRt4Dew1mmWfEQ-187" value="Load" style="text;strokeColor=none;fillColor=none;html=1;align=center;verticalAlign=middle;whiteSpace=wrap;rounded=0;fontSize=12;" vertex="1" parent="1">
          <mxGeometry x="-102" y="383" width="18" height="9" as="geometry" />
        </mxCell>
        <mxCell id="TdGyltSRt4Dew1mmWfEQ-189" value="" style="endArrow=none;html=1;rounded=0;fontSize=12;startSize=8;endSize=8;curved=1;" edge="1" parent="1">
          <mxGeometry width="50" height="50" relative="1" as="geometry">
            <mxPoint x="682" y="163" as="sourcePoint" />
            <mxPoint x="555" y="163" as="targetPoint" />
          </mxGeometry>
        </mxCell>
        <mxCell id="TdGyltSRt4Dew1mmWfEQ-190" value="" style="endArrow=none;html=1;rounded=0;fontSize=12;startSize=8;endSize=8;curved=1;" edge="1" parent="1">
          <mxGeometry width="50" height="50" relative="1" as="geometry">
            <mxPoint x="554" y="164" as="sourcePoint" />
            <mxPoint x="551" y="-61" as="targetPoint" />
          </mxGeometry>
        </mxCell>
        <mxCell id="TdGyltSRt4Dew1mmWfEQ-192" value="" style="endArrow=none;html=1;rounded=0;fontSize=12;startSize=8;endSize=8;curved=1;" edge="1" parent="1">
          <mxGeometry width="50" height="50" relative="1" as="geometry">
            <mxPoint x="550" y="-59" as="sourcePoint" />
            <mxPoint x="6" y="-57" as="targetPoint" />
          </mxGeometry>
        </mxCell>
        <mxCell id="TdGyltSRt4Dew1mmWfEQ-193" value="" style="endArrow=none;html=1;rounded=0;fontSize=12;startSize=8;endSize=8;curved=1;" edge="1" parent="1">
          <mxGeometry width="50" height="50" relative="1" as="geometry">
            <mxPoint x="6" y="387" as="sourcePoint" />
            <mxPoint x="6" y="-57" as="targetPoint" />
          </mxGeometry>
        </mxCell>
        <mxCell id="TdGyltSRt4Dew1mmWfEQ-194" value="" style="endArrow=classic;html=1;rounded=0;fontSize=12;startSize=8;endSize=8;curved=1;entryX=1.008;entryY=0.867;entryDx=0;entryDy=0;entryPerimeter=0;" edge="1" parent="1" target="TdGyltSRt4Dew1mmWfEQ-13">
          <mxGeometry width="50" height="50" relative="1" as="geometry">
            <mxPoint x="7" y="383" as="sourcePoint" />
            <mxPoint x="55" y="339" as="targetPoint" />
          </mxGeometry>
        </mxCell>
        <mxCell id="TdGyltSRt4Dew1mmWfEQ-196" value="" style="endArrow=none;html=1;rounded=0;fontSize=12;startSize=8;endSize=8;curved=1;" edge="1" parent="1">
          <mxGeometry width="50" height="50" relative="1" as="geometry">
            <mxPoint x="892" y="125" as="sourcePoint" />
            <mxPoint x="972" y="125" as="targetPoint" />
          </mxGeometry>
        </mxCell>
        <mxCell id="TdGyltSRt4Dew1mmWfEQ-197" value="" style="endArrow=none;html=1;rounded=0;fontSize=12;startSize=8;endSize=8;curved=1;" edge="1" parent="1">
          <mxGeometry width="50" height="50" relative="1" as="geometry">
            <mxPoint x="891" y="126" as="sourcePoint" />
            <mxPoint x="886" y="-90" as="targetPoint" />
          </mxGeometry>
        </mxCell>
        <mxCell id="TdGyltSRt4Dew1mmWfEQ-199" value="" style="endArrow=none;html=1;rounded=0;fontSize=12;startSize=8;endSize=8;curved=1;" edge="1" parent="1">
          <mxGeometry width="50" height="50" relative="1" as="geometry">
            <mxPoint x="-7" y="341" as="sourcePoint" />
            <mxPoint x="-7" y="-79" as="targetPoint" />
          </mxGeometry>
        </mxCell>
        <mxCell id="TdGyltSRt4Dew1mmWfEQ-201" value="" style="whiteSpace=wrap;html=1;aspect=fixed;" vertex="1" parent="1">
          <mxGeometry x="-310" y="529" width="439" height="439" as="geometry" />
        </mxCell>
        <mxCell id="TdGyltSRt4Dew1mmWfEQ-202" value="Control Unit" style="text;strokeColor=none;fillColor=none;html=1;align=center;verticalAlign=middle;whiteSpace=wrap;rounded=0;fontSize=20;" vertex="1" parent="1">
          <mxGeometry x="-120.5" y="733.5" width="60" height="30" as="geometry" />
        </mxCell>
        <mxCell id="TdGyltSRt4Dew1mmWfEQ-208" value="Push Button Detector" style="whiteSpace=wrap;html=1;aspect=fixed;" vertex="1" parent="1">
          <mxGeometry x="-307" y="1051" width="54" height="54" as="geometry" />
        </mxCell>
        <mxCell id="TdGyltSRt4Dew1mmWfEQ-209" value="Push Button Detector" style="whiteSpace=wrap;html=1;aspect=fixed;" vertex="1" parent="1">
          <mxGeometry x="-207" y="1048" width="54" height="54" as="geometry" />
        </mxCell>
        <mxCell id="TdGyltSRt4Dew1mmWfEQ-210" value="Push Button Detector" style="whiteSpace=wrap;html=1;aspect=fixed;" vertex="1" parent="1">
          <mxGeometry x="-108" y="1048" width="54" height="54" as="geometry" />
        </mxCell>
        <mxCell id="TdGyltSRt4Dew1mmWfEQ-212" value="Push Button Detector" style="whiteSpace=wrap;html=1;aspect=fixed;" vertex="1" parent="1">
          <mxGeometry x="-9" y="1045" width="54" height="54" as="geometry" />
        </mxCell>
        <mxCell id="TdGyltSRt4Dew1mmWfEQ-213" value="Push Button Detector" style="whiteSpace=wrap;html=1;aspect=fixed;" vertex="1" parent="1">
          <mxGeometry x="82" y="1045" width="54" height="54" as="geometry" />
        </mxCell>
        <mxCell id="TdGyltSRt4Dew1mmWfEQ-216" value="" style="endArrow=classic;html=1;rounded=0;fontSize=12;startSize=8;endSize=8;curved=1;entryX=0.944;entryY=1.004;entryDx=0;entryDy=0;entryPerimeter=0;" edge="1" parent="1" target="TdGyltSRt4Dew1mmWfEQ-201">
          <mxGeometry width="50" height="50" relative="1" as="geometry">
            <mxPoint x="98" y="1045" as="sourcePoint" />
            <mxPoint x="148" y="995" as="targetPoint" />
          </mxGeometry>
        </mxCell>
        <mxCell id="TdGyltSRt4Dew1mmWfEQ-217" value="" style="endArrow=classic;html=1;rounded=0;fontSize=12;startSize=8;endSize=8;curved=1;entryX=0.73;entryY=1.001;entryDx=0;entryDy=0;entryPerimeter=0;" edge="1" parent="1" target="TdGyltSRt4Dew1mmWfEQ-201">
          <mxGeometry width="50" height="50" relative="1" as="geometry">
            <mxPoint x="8" y="1045" as="sourcePoint" />
            <mxPoint x="58" y="995" as="targetPoint" />
          </mxGeometry>
        </mxCell>
        <mxCell id="TdGyltSRt4Dew1mmWfEQ-218" value="" style="endArrow=classic;html=1;rounded=0;fontSize=12;startSize=8;endSize=8;curved=1;entryX=0.547;entryY=1.001;entryDx=0;entryDy=0;entryPerimeter=0;" edge="1" parent="1" target="TdGyltSRt4Dew1mmWfEQ-201">
          <mxGeometry width="50" height="50" relative="1" as="geometry">
            <mxPoint x="-75" y="1046" as="sourcePoint" />
            <mxPoint x="-25" y="996" as="targetPoint" />
          </mxGeometry>
        </mxCell>
        <mxCell id="TdGyltSRt4Dew1mmWfEQ-222" value="" style="endArrow=classic;html=1;rounded=0;fontSize=12;startSize=8;endSize=8;curved=1;entryX=0.297;entryY=1.004;entryDx=0;entryDy=0;entryPerimeter=0;" edge="1" parent="1" target="TdGyltSRt4Dew1mmWfEQ-201">
          <mxGeometry width="50" height="50" relative="1" as="geometry">
            <mxPoint x="-186" y="1045" as="sourcePoint" />
            <mxPoint x="-136" y="995" as="targetPoint" />
          </mxGeometry>
        </mxCell>
        <mxCell id="TdGyltSRt4Dew1mmWfEQ-224" value="" style="endArrow=classic;html=1;rounded=0;fontSize=12;startSize=8;endSize=8;curved=1;entryX=0.072;entryY=1.014;entryDx=0;entryDy=0;entryPerimeter=0;" edge="1" parent="1" target="TdGyltSRt4Dew1mmWfEQ-201">
          <mxGeometry width="50" height="50" relative="1" as="geometry">
            <mxPoint x="-283" y="1049" as="sourcePoint" />
            <mxPoint x="-233" y="999" as="targetPoint" />
          </mxGeometry>
        </mxCell>
        <mxCell id="TdGyltSRt4Dew1mmWfEQ-225" value="BTNC" style="text;strokeColor=none;fillColor=none;html=1;align=center;verticalAlign=middle;whiteSpace=wrap;rounded=0;fontSize=16;" vertex="1" parent="1">
          <mxGeometry x="-307" y="1108" width="60" height="30" as="geometry" />
        </mxCell>
        <mxCell id="TdGyltSRt4Dew1mmWfEQ-226" value="BTNR" style="text;strokeColor=none;fillColor=none;html=1;align=center;verticalAlign=middle;whiteSpace=wrap;rounded=0;fontSize=16;" vertex="1" parent="1">
          <mxGeometry x="-210" y="1108" width="60" height="30" as="geometry" />
        </mxCell>
        <mxCell id="TdGyltSRt4Dew1mmWfEQ-227" value="BTNL" style="text;strokeColor=none;fillColor=none;html=1;align=center;verticalAlign=middle;whiteSpace=wrap;rounded=0;fontSize=16;" vertex="1" parent="1">
          <mxGeometry x="-107" y="1108" width="60" height="30" as="geometry" />
        </mxCell>
        <mxCell id="TdGyltSRt4Dew1mmWfEQ-228" value="BTNU" style="text;strokeColor=none;fillColor=none;html=1;align=center;verticalAlign=middle;whiteSpace=wrap;rounded=0;fontSize=16;" vertex="1" parent="1">
          <mxGeometry x="-15" y="1108" width="60" height="30" as="geometry" />
        </mxCell>
        <mxCell id="TdGyltSRt4Dew1mmWfEQ-230" value="BTND" style="text;strokeColor=none;fillColor=none;html=1;align=center;verticalAlign=middle;whiteSpace=wrap;rounded=0;fontSize=16;" vertex="1" parent="1">
          <mxGeometry x="79" y="1108" width="60" height="30" as="geometry" />
        </mxCell>
        <mxCell id="TdGyltSRt4Dew1mmWfEQ-231" value="" style="shape=xor;whiteSpace=wrap;html=1;direction=south;" vertex="1" parent="1">
          <mxGeometry x="242" y="522" width="80" height="60" as="geometry" />
        </mxCell>
        <mxCell id="TdGyltSRt4Dew1mmWfEQ-232" value="" style="shape=requiredInterface;html=1;verticalLabelPosition=bottom;sketch=0;direction=south;" vertex="1" parent="1">
          <mxGeometry x="250" y="514" width="64" height="10" as="geometry" />
        </mxCell>
        <mxCell id="TdGyltSRt4Dew1mmWfEQ-234" value="" style="endArrow=none;html=1;rounded=0;fontSize=12;startSize=8;endSize=8;curved=1;" edge="1" parent="1" target="TdGyltSRt4Dew1mmWfEQ-235">
          <mxGeometry width="50" height="50" relative="1" as="geometry">
            <mxPoint x="285" y="643" as="sourcePoint" />
            <mxPoint x="285" y="581" as="targetPoint" />
          </mxGeometry>
        </mxCell>
        <mxCell id="TdGyltSRt4Dew1mmWfEQ-235" value="" style="triangle;whiteSpace=wrap;html=1;direction=south;" vertex="1" parent="1">
          <mxGeometry x="248" y="685" width="80" height="60" as="geometry" />
        </mxCell>
        <mxCell id="TdGyltSRt4Dew1mmWfEQ-236" value="" style="ellipse;whiteSpace=wrap;html=1;aspect=fixed;" vertex="1" parent="1">
          <mxGeometry x="273" y="745" width="37" height="37" as="geometry" />
        </mxCell>
        <mxCell id="TdGyltSRt4Dew1mmWfEQ-238" value="" style="endArrow=none;html=1;rounded=0;fontSize=12;startSize=8;endSize=8;curved=1;entryX=1;entryY=0.5;entryDx=0;entryDy=0;entryPerimeter=0;" edge="1" parent="1" target="TdGyltSRt4Dew1mmWfEQ-231">
          <mxGeometry width="50" height="50" relative="1" as="geometry">
            <mxPoint x="285" y="648" as="sourcePoint" />
            <mxPoint x="332" y="593" as="targetPoint" />
          </mxGeometry>
        </mxCell>
        <mxCell id="TdGyltSRt4Dew1mmWfEQ-241" value="" style="endArrow=none;html=1;rounded=0;fontSize=12;startSize=8;endSize=8;curved=1;" edge="1" parent="1">
          <mxGeometry width="50" height="50" relative="1" as="geometry">
            <mxPoint x="293" y="783.5" as="sourcePoint" />
            <mxPoint x="293" y="824" as="targetPoint" />
          </mxGeometry>
        </mxCell>
        <mxCell id="TdGyltSRt4Dew1mmWfEQ-245" value="" style="shape=xor;whiteSpace=wrap;html=1;direction=south;" vertex="1" parent="1">
          <mxGeometry x="375" y="519" width="80" height="60" as="geometry" />
        </mxCell>
        <mxCell id="TdGyltSRt4Dew1mmWfEQ-246" value="" style="shape=requiredInterface;html=1;verticalLabelPosition=bottom;sketch=0;direction=south;" vertex="1" parent="1">
          <mxGeometry x="383" y="511" width="64" height="10" as="geometry" />
        </mxCell>
        <mxCell id="TdGyltSRt4Dew1mmWfEQ-247" value="" style="endArrow=none;html=1;rounded=0;fontSize=12;startSize=8;endSize=8;curved=1;" edge="1" parent="1" target="TdGyltSRt4Dew1mmWfEQ-248">
          <mxGeometry width="50" height="50" relative="1" as="geometry">
            <mxPoint x="418" y="640" as="sourcePoint" />
            <mxPoint x="418" y="578" as="targetPoint" />
          </mxGeometry>
        </mxCell>
        <mxCell id="TdGyltSRt4Dew1mmWfEQ-248" value="" style="triangle;whiteSpace=wrap;html=1;direction=south;" vertex="1" parent="1">
          <mxGeometry x="381" y="682" width="80" height="60" as="geometry" />
        </mxCell>
        <mxCell id="TdGyltSRt4Dew1mmWfEQ-249" value="" style="ellipse;whiteSpace=wrap;html=1;aspect=fixed;" vertex="1" parent="1">
          <mxGeometry x="406" y="742" width="37" height="37" as="geometry" />
        </mxCell>
        <mxCell id="TdGyltSRt4Dew1mmWfEQ-250" value="" style="endArrow=none;html=1;rounded=0;fontSize=12;startSize=8;endSize=8;curved=1;entryX=1;entryY=0.5;entryDx=0;entryDy=0;entryPerimeter=0;" edge="1" parent="1" target="TdGyltSRt4Dew1mmWfEQ-245">
          <mxGeometry width="50" height="50" relative="1" as="geometry">
            <mxPoint x="418" y="645" as="sourcePoint" />
            <mxPoint x="465" y="590" as="targetPoint" />
          </mxGeometry>
        </mxCell>
        <mxCell id="TdGyltSRt4Dew1mmWfEQ-251" value="" style="endArrow=none;html=1;rounded=0;fontSize=12;startSize=8;endSize=8;curved=1;" edge="1" parent="1">
          <mxGeometry width="50" height="50" relative="1" as="geometry">
            <mxPoint x="426" y="780.5" as="sourcePoint" />
            <mxPoint x="426" y="821" as="targetPoint" />
          </mxGeometry>
        </mxCell>
        <mxCell id="TdGyltSRt4Dew1mmWfEQ-252" value="" style="shape=or;whiteSpace=wrap;html=1;direction=south;" vertex="1" parent="1">
          <mxGeometry x="292" y="820" width="140" height="76" as="geometry" />
        </mxCell>
        <mxCell id="TdGyltSRt4Dew1mmWfEQ-255" value="" style="endArrow=none;html=1;rounded=0;fontSize=12;startSize=8;endSize=8;curved=1;" edge="1" parent="1">
          <mxGeometry width="50" height="50" relative="1" as="geometry">
            <mxPoint x="367" y="936" as="sourcePoint" />
            <mxPoint x="367" y="896" as="targetPoint" />
          </mxGeometry>
        </mxCell>
        <mxCell id="TdGyltSRt4Dew1mmWfEQ-259" value="" style="endArrow=classic;html=1;rounded=0;fontSize=12;startSize=8;endSize=8;curved=1;" edge="1" parent="1">
          <mxGeometry width="50" height="50" relative="1" as="geometry">
            <mxPoint x="368" y="935" as="sourcePoint" />
            <mxPoint x="130" y="935" as="targetPoint" />
          </mxGeometry>
        </mxCell>
        <mxCell id="TdGyltSRt4Dew1mmWfEQ-260" value="Trigger" style="text;strokeColor=none;fillColor=none;html=1;align=center;verticalAlign=middle;whiteSpace=wrap;rounded=0;fontSize=16;" vertex="1" parent="1">
          <mxGeometry x="146" y="904" width="60" height="30" as="geometry" />
        </mxCell>
        <mxCell id="TdGyltSRt4Dew1mmWfEQ-262" value="" style="endArrow=none;html=1;rounded=0;fontSize=12;startSize=8;endSize=8;curved=1;" edge="1" parent="1">
          <mxGeometry width="50" height="50" relative="1" as="geometry">
            <mxPoint x="490" y="-30" as="sourcePoint" />
            <mxPoint x="810" y="-37" as="targetPoint" />
          </mxGeometry>
        </mxCell>
        <mxCell id="TdGyltSRt4Dew1mmWfEQ-263" value="" style="endArrow=none;html=1;rounded=0;fontSize=12;startSize=8;endSize=8;curved=1;" edge="1" parent="1">
          <mxGeometry width="50" height="50" relative="1" as="geometry">
            <mxPoint x="488" y="81" as="sourcePoint" />
            <mxPoint x="488" y="-29" as="targetPoint" />
          </mxGeometry>
        </mxCell>
        <mxCell id="TdGyltSRt4Dew1mmWfEQ-266" value="" style="endArrow=classic;html=1;rounded=0;fontSize=12;startSize=8;endSize=8;curved=1;entryX=1;entryY=0.5;entryDx=0;entryDy=0;" edge="1" parent="1" target="TdGyltSRt4Dew1mmWfEQ-87">
          <mxGeometry width="50" height="50" relative="1" as="geometry">
            <mxPoint x="490" y="79" as="sourcePoint" />
            <mxPoint x="540" y="29" as="targetPoint" />
          </mxGeometry>
        </mxCell>
        <mxCell id="TdGyltSRt4Dew1mmWfEQ-267" value="" style="endArrow=none;html=1;rounded=0;fontSize=12;startSize=8;endSize=8;curved=1;" edge="1" parent="1">
          <mxGeometry width="50" height="50" relative="1" as="geometry">
            <mxPoint x="213" y="-26" as="sourcePoint" />
            <mxPoint x="488" y="-29" as="targetPoint" />
          </mxGeometry>
        </mxCell>
        <mxCell id="TdGyltSRt4Dew1mmWfEQ-268" value="" style="endArrow=none;html=1;rounded=0;fontSize=12;startSize=8;endSize=8;curved=1;" edge="1" parent="1">
          <mxGeometry width="50" height="50" relative="1" as="geometry">
            <mxPoint x="218" y="78" as="sourcePoint" />
            <mxPoint x="218" y="-25" as="targetPoint" />
          </mxGeometry>
        </mxCell>
        <mxCell id="TdGyltSRt4Dew1mmWfEQ-269" value="" style="endArrow=classic;html=1;rounded=0;fontSize=12;startSize=8;endSize=8;curved=1;entryX=1;entryY=0.5;entryDx=0;entryDy=0;" edge="1" parent="1" target="TdGyltSRt4Dew1mmWfEQ-79">
          <mxGeometry width="50" height="50" relative="1" as="geometry">
            <mxPoint x="221" y="79" as="sourcePoint" />
            <mxPoint x="271" y="29" as="targetPoint" />
          </mxGeometry>
        </mxCell>
        <mxCell id="TdGyltSRt4Dew1mmWfEQ-272" value="" style="shape=requiredInterface;html=1;verticalLabelPosition=bottom;sketch=0;direction=west;" vertex="1" parent="1">
          <mxGeometry x="-207" y="293" width="10" height="31" as="geometry" />
        </mxCell>
        <mxCell id="TdGyltSRt4Dew1mmWfEQ-274" value="" style="shape=requiredInterface;html=1;verticalLabelPosition=bottom;sketch=0;direction=east;" vertex="1" parent="1">
          <mxGeometry x="-54" y="291" width="10" height="31" as="geometry" />
        </mxCell>
        <mxCell id="TdGyltSRt4Dew1mmWfEQ-278" value="" style="endArrow=none;html=1;rounded=0;fontSize=12;startSize=8;endSize=8;curved=1;" edge="1" parent="1">
          <mxGeometry width="50" height="50" relative="1" as="geometry">
            <mxPoint x="-46" y="309" as="sourcePoint" />
            <mxPoint x="239" y="309" as="targetPoint" />
          </mxGeometry>
        </mxCell>
        <mxCell id="TdGyltSRt4Dew1mmWfEQ-279" value="" style="endArrow=none;html=1;rounded=0;fontSize=12;startSize=8;endSize=8;curved=1;" edge="1" parent="1">
          <mxGeometry width="50" height="50" relative="1" as="geometry">
            <mxPoint x="237" y="364" as="sourcePoint" />
            <mxPoint x="237" y="309" as="targetPoint" />
          </mxGeometry>
        </mxCell>
        <mxCell id="TdGyltSRt4Dew1mmWfEQ-281" value="" style="endArrow=none;html=1;rounded=0;fontSize=12;startSize=8;endSize=8;curved=1;" edge="1" parent="1">
          <mxGeometry width="50" height="50" relative="1" as="geometry">
            <mxPoint x="382" y="360" as="sourcePoint" />
            <mxPoint x="238" y="363" as="targetPoint" />
          </mxGeometry>
        </mxCell>
        <mxCell id="TdGyltSRt4Dew1mmWfEQ-282" value="" style="endArrow=classic;html=1;rounded=0;fontSize=12;startSize=8;endSize=8;curved=1;entryX=0.457;entryY=0.975;entryDx=0;entryDy=0;entryPerimeter=0;" edge="1" parent="1" target="TdGyltSRt4Dew1mmWfEQ-246">
          <mxGeometry width="50" height="50" relative="1" as="geometry">
            <mxPoint x="380" y="361" as="sourcePoint" />
            <mxPoint x="430" y="311" as="targetPoint" />
          </mxGeometry>
        </mxCell>
        <mxCell id="TdGyltSRt4Dew1mmWfEQ-283" value="" style="endArrow=none;html=1;rounded=0;fontSize=12;startSize=8;endSize=8;curved=1;" edge="1" parent="1" source="TdGyltSRt4Dew1mmWfEQ-284">
          <mxGeometry width="50" height="50" relative="1" as="geometry">
            <mxPoint x="59" y="323" as="sourcePoint" />
            <mxPoint x="79" y="288" as="targetPoint" />
          </mxGeometry>
        </mxCell>
        <mxCell id="TdGyltSRt4Dew1mmWfEQ-284" value="8" style="text;strokeColor=none;fillColor=none;html=1;align=center;verticalAlign=middle;whiteSpace=wrap;rounded=0;fontSize=16;" vertex="1" parent="1">
          <mxGeometry x="34" y="288" width="60" height="30" as="geometry" />
        </mxCell>
        <mxCell id="TdGyltSRt4Dew1mmWfEQ-287" value="" style="endArrow=none;html=1;rounded=0;fontSize=12;startSize=8;endSize=8;curved=1;" edge="1" parent="1">
          <mxGeometry width="50" height="50" relative="1" as="geometry">
            <mxPoint x="-255" y="305" as="sourcePoint" />
            <mxPoint x="-209" y="305" as="targetPoint" />
          </mxGeometry>
        </mxCell>
        <mxCell id="TdGyltSRt4Dew1mmWfEQ-290" value="" style="endArrow=none;html=1;rounded=0;fontSize=12;startSize=8;endSize=8;curved=1;" edge="1" parent="1">
          <mxGeometry width="50" height="50" relative="1" as="geometry">
            <mxPoint x="-253" y="414" as="sourcePoint" />
            <mxPoint x="-253" y="303" as="targetPoint" />
          </mxGeometry>
        </mxCell>
        <mxCell id="TdGyltSRt4Dew1mmWfEQ-291" value="" style="endArrow=none;html=1;rounded=0;fontSize=12;startSize=8;endSize=8;curved=1;" edge="1" parent="1">
          <mxGeometry width="50" height="50" relative="1" as="geometry">
            <mxPoint x="239" y="404" as="sourcePoint" />
            <mxPoint x="-253" y="409" as="targetPoint" />
          </mxGeometry>
        </mxCell>
        <mxCell id="TdGyltSRt4Dew1mmWfEQ-292" value="" style="endArrow=classic;html=1;rounded=0;fontSize=12;startSize=8;endSize=8;curved=1;entryX=-0.129;entryY=1.04;entryDx=0;entryDy=0;entryPerimeter=0;" edge="1" parent="1" target="TdGyltSRt4Dew1mmWfEQ-232">
          <mxGeometry width="50" height="50" relative="1" as="geometry">
            <mxPoint x="241" y="405" as="sourcePoint" />
            <mxPoint x="291" y="355" as="targetPoint" />
          </mxGeometry>
        </mxCell>
        <mxCell id="TdGyltSRt4Dew1mmWfEQ-293" value="" style="endArrow=none;html=1;rounded=0;fontSize=12;startSize=8;endSize=8;curved=1;" edge="1" parent="1">
          <mxGeometry width="50" height="50" relative="1" as="geometry">
            <mxPoint x="76" y="324" as="sourcePoint" />
            <mxPoint x="100" y="291" as="targetPoint" />
          </mxGeometry>
        </mxCell>
        <mxCell id="TdGyltSRt4Dew1mmWfEQ-294" value="" style="endArrow=none;html=1;rounded=0;fontSize=12;startSize=8;endSize=8;curved=1;" edge="1" parent="1">
          <mxGeometry width="50" height="50" relative="1" as="geometry">
            <mxPoint x="72" y="420" as="sourcePoint" />
            <mxPoint x="102" y="386" as="targetPoint" />
          </mxGeometry>
        </mxCell>
        <mxCell id="TdGyltSRt4Dew1mmWfEQ-295" value="8" style="text;strokeColor=none;fillColor=none;html=1;align=center;verticalAlign=middle;whiteSpace=wrap;rounded=0;fontSize=16;" vertex="1" parent="1">
          <mxGeometry x="48" y="378" width="60" height="30" as="geometry" />
        </mxCell>
        <mxCell id="TdGyltSRt4Dew1mmWfEQ-296" value="" style="endArrow=none;html=1;rounded=0;fontSize=12;startSize=8;endSize=8;curved=1;" edge="1" parent="1">
          <mxGeometry width="50" height="50" relative="1" as="geometry">
            <mxPoint x="342" y="162" as="sourcePoint" />
            <mxPoint x="425" y="162" as="targetPoint" />
          </mxGeometry>
        </mxCell>
        <mxCell id="TdGyltSRt4Dew1mmWfEQ-297" value="" style="endArrow=classic;html=1;rounded=0;fontSize=12;startSize=8;endSize=8;curved=1;" edge="1" parent="1" target="TdGyltSRt4Dew1mmWfEQ-246">
          <mxGeometry width="50" height="50" relative="1" as="geometry">
            <mxPoint x="422" y="161" as="sourcePoint" />
            <mxPoint x="472" y="111" as="targetPoint" />
          </mxGeometry>
        </mxCell>
        <mxCell id="TdGyltSRt4Dew1mmWfEQ-298" value="" style="endArrow=none;html=1;rounded=0;fontSize=12;startSize=8;endSize=8;curved=1;" edge="1" parent="1">
          <mxGeometry width="50" height="50" relative="1" as="geometry">
            <mxPoint x="147" y="374" as="sourcePoint" />
            <mxPoint x="150" y="171" as="targetPoint" />
          </mxGeometry>
        </mxCell>
        <mxCell id="TdGyltSRt4Dew1mmWfEQ-299" value="" style="endArrow=none;html=1;rounded=0;fontSize=12;startSize=8;endSize=8;curved=1;" edge="1" parent="1">
          <mxGeometry width="50" height="50" relative="1" as="geometry">
            <mxPoint x="148" y="373" as="sourcePoint" />
            <mxPoint x="285" y="373" as="targetPoint" />
          </mxGeometry>
        </mxCell>
        <mxCell id="TdGyltSRt4Dew1mmWfEQ-300" value="" style="endArrow=classic;html=1;rounded=0;fontSize=12;startSize=8;endSize=8;curved=1;" edge="1" parent="1" target="TdGyltSRt4Dew1mmWfEQ-232">
          <mxGeometry width="50" height="50" relative="1" as="geometry">
            <mxPoint x="285" y="375" as="sourcePoint" />
            <mxPoint x="335" y="325" as="targetPoint" />
          </mxGeometry>
        </mxCell>
        <mxCell id="TdGyltSRt4Dew1mmWfEQ-301" value="" style="rounded=0;whiteSpace=wrap;html=1;" vertex="1" parent="1">
          <mxGeometry x="562" y="862" width="120" height="60" as="geometry" />
        </mxCell>
        <mxCell id="TdGyltSRt4Dew1mmWfEQ-302" value="" style="triangle;whiteSpace=wrap;html=1;" vertex="1" parent="1">
          <mxGeometry x="562" y="898" width="16" height="24" as="geometry" />
        </mxCell>
        <mxCell id="TdGyltSRt4Dew1mmWfEQ-303" value="Clock Divider" style="text;strokeColor=none;fillColor=none;html=1;align=center;verticalAlign=middle;whiteSpace=wrap;rounded=0;fontSize=14;" vertex="1" parent="1">
          <mxGeometry x="594.5" y="880.5" width="55" height="23" as="geometry" />
        </mxCell>
        <mxCell id="TdGyltSRt4Dew1mmWfEQ-305" value="" style="endArrow=classic;html=1;rounded=0;fontSize=12;startSize=8;endSize=8;curved=1;" edge="1" parent="1">
          <mxGeometry width="50" height="50" relative="1" as="geometry">
            <mxPoint x="513" y="908" as="sourcePoint" />
            <mxPoint x="563" y="908" as="targetPoint" />
          </mxGeometry>
        </mxCell>
        <mxCell id="TdGyltSRt4Dew1mmWfEQ-306" value="100MHz" style="text;strokeColor=none;fillColor=none;html=1;align=center;verticalAlign=middle;whiteSpace=wrap;rounded=0;fontSize=16;" vertex="1" parent="1">
          <mxGeometry x="500" y="874" width="60" height="30" as="geometry" />
        </mxCell>
        <mxCell id="TdGyltSRt4Dew1mmWfEQ-310" value="En" style="text;strokeColor=none;fillColor=none;html=1;align=center;verticalAlign=middle;whiteSpace=wrap;rounded=0;fontSize=16;" vertex="1" parent="1">
          <mxGeometry x="639" y="896" width="60" height="30" as="geometry" />
        </mxCell>
        <mxCell id="TdGyltSRt4Dew1mmWfEQ-313" value="" style="shape=or;whiteSpace=wrap;html=1;direction=west;" vertex="1" parent="1">
          <mxGeometry x="810" y="815" width="166" height="165" as="geometry" />
        </mxCell>
        <mxCell id="TdGyltSRt4Dew1mmWfEQ-332" value="" style="ellipse;whiteSpace=wrap;html=1;aspect=fixed;" vertex="1" parent="1">
          <mxGeometry x="976" y="815" width="28" height="28" as="geometry" />
        </mxCell>
        <mxCell id="TdGyltSRt4Dew1mmWfEQ-336" value="" style="ellipse;whiteSpace=wrap;html=1;aspect=fixed;" vertex="1" parent="1">
          <mxGeometry x="976" y="846" width="28" height="28" as="geometry" />
        </mxCell>
        <mxCell id="TdGyltSRt4Dew1mmWfEQ-337" value="" style="ellipse;whiteSpace=wrap;html=1;aspect=fixed;" vertex="1" parent="1">
          <mxGeometry x="976" y="876" width="28" height="28" as="geometry" />
        </mxCell>
        <mxCell id="TdGyltSRt4Dew1mmWfEQ-338" value="" style="ellipse;whiteSpace=wrap;html=1;aspect=fixed;" vertex="1" parent="1">
          <mxGeometry x="976" y="905" width="28" height="28" as="geometry" />
        </mxCell>
        <mxCell id="TdGyltSRt4Dew1mmWfEQ-339" value="" style="ellipse;whiteSpace=wrap;html=1;aspect=fixed;" vertex="1" parent="1">
          <mxGeometry x="976" y="934" width="28" height="28" as="geometry" />
        </mxCell>
        <mxCell id="TdGyltSRt4Dew1mmWfEQ-340" value="" style="endArrow=classic;html=1;rounded=0;fontSize=12;startSize=8;endSize=8;curved=1;entryX=1;entryY=0.5;entryDx=0;entryDy=0;" edge="1" parent="1" target="TdGyltSRt4Dew1mmWfEQ-332">
          <mxGeometry width="50" height="50" relative="1" as="geometry">
            <mxPoint x="1107" y="826" as="sourcePoint" />
            <mxPoint x="1157" y="776" as="targetPoint" />
          </mxGeometry>
        </mxCell>
        <mxCell id="TdGyltSRt4Dew1mmWfEQ-341" value="" style="endArrow=classic;html=1;rounded=0;fontSize=12;startSize=8;endSize=8;curved=1;entryX=1;entryY=0.5;entryDx=0;entryDy=0;" edge="1" parent="1" target="TdGyltSRt4Dew1mmWfEQ-336">
          <mxGeometry width="50" height="50" relative="1" as="geometry">
            <mxPoint x="1098" y="856" as="sourcePoint" />
            <mxPoint x="1148" y="815" as="targetPoint" />
          </mxGeometry>
        </mxCell>
        <mxCell id="TdGyltSRt4Dew1mmWfEQ-342" value="" style="endArrow=classic;html=1;rounded=0;fontSize=12;startSize=8;endSize=8;curved=1;entryX=1;entryY=0.5;entryDx=0;entryDy=0;" edge="1" parent="1" target="TdGyltSRt4Dew1mmWfEQ-337">
          <mxGeometry width="50" height="50" relative="1" as="geometry">
            <mxPoint x="1090" y="886" as="sourcePoint" />
            <mxPoint x="1140" y="836" as="targetPoint" />
          </mxGeometry>
        </mxCell>
        <mxCell id="TdGyltSRt4Dew1mmWfEQ-343" value="" style="endArrow=classic;html=1;rounded=0;fontSize=12;startSize=8;endSize=8;curved=1;entryX=1;entryY=0.5;entryDx=0;entryDy=0;" edge="1" parent="1" target="TdGyltSRt4Dew1mmWfEQ-338">
          <mxGeometry width="50" height="50" relative="1" as="geometry">
            <mxPoint x="1090" y="920" as="sourcePoint" />
            <mxPoint x="1140" y="870" as="targetPoint" />
          </mxGeometry>
        </mxCell>
        <mxCell id="TdGyltSRt4Dew1mmWfEQ-344" value="" style="endArrow=classic;html=1;rounded=0;fontSize=12;startSize=8;endSize=8;curved=1;entryX=1;entryY=0.5;entryDx=0;entryDy=0;" edge="1" parent="1" target="TdGyltSRt4Dew1mmWfEQ-339">
          <mxGeometry width="50" height="50" relative="1" as="geometry">
            <mxPoint x="1085" y="948" as="sourcePoint" />
            <mxPoint x="1135" y="906" as="targetPoint" />
          </mxGeometry>
        </mxCell>
        <mxCell id="TdGyltSRt4Dew1mmWfEQ-347" value="" style="endArrow=classic;html=1;rounded=0;fontSize=12;startSize=8;endSize=8;curved=1;" edge="1" parent="1">
          <mxGeometry width="50" height="50" relative="1" as="geometry">
            <mxPoint x="1095" y="968" as="sourcePoint" />
            <mxPoint x="983" y="968" as="targetPoint" />
          </mxGeometry>
        </mxCell>
        <mxCell id="TdGyltSRt4Dew1mmWfEQ-349" value="Trigger" style="text;strokeColor=none;fillColor=none;html=1;align=center;verticalAlign=middle;whiteSpace=wrap;rounded=0;fontSize=16;" vertex="1" parent="1">
          <mxGeometry x="1038.5" y="973" width="60" height="30" as="geometry" />
        </mxCell>
        <mxCell id="TdGyltSRt4Dew1mmWfEQ-353" value="BTND" style="text;strokeColor=none;fillColor=none;html=1;align=center;verticalAlign=middle;whiteSpace=wrap;rounded=0;fontSize=16;" vertex="1" parent="1">
          <mxGeometry x="1089" y="932" width="60" height="30" as="geometry" />
        </mxCell>
        <mxCell id="TdGyltSRt4Dew1mmWfEQ-354" value="BTNU" style="text;strokeColor=none;fillColor=none;html=1;align=center;verticalAlign=middle;whiteSpace=wrap;rounded=0;fontSize=16;" vertex="1" parent="1">
          <mxGeometry x="1098.5" y="908" width="60" height="30" as="geometry" />
        </mxCell>
        <mxCell id="TdGyltSRt4Dew1mmWfEQ-355" value="BTNL" style="text;strokeColor=none;fillColor=none;html=1;align=center;verticalAlign=middle;whiteSpace=wrap;rounded=0;fontSize=16;" vertex="1" parent="1">
          <mxGeometry x="1101" y="871" width="60" height="30" as="geometry" />
        </mxCell>
        <mxCell id="TdGyltSRt4Dew1mmWfEQ-356" value="BTNR" style="text;strokeColor=none;fillColor=none;html=1;align=center;verticalAlign=middle;whiteSpace=wrap;rounded=0;fontSize=16;" vertex="1" parent="1">
          <mxGeometry x="1108" y="841" width="60" height="30" as="geometry" />
        </mxCell>
        <mxCell id="TdGyltSRt4Dew1mmWfEQ-357" value="BTNC" style="text;strokeColor=none;fillColor=none;html=1;align=center;verticalAlign=middle;whiteSpace=wrap;rounded=0;fontSize=16;" vertex="1" parent="1">
          <mxGeometry x="1111" y="813" width="60" height="30" as="geometry" />
        </mxCell>
        <mxCell id="TdGyltSRt4Dew1mmWfEQ-359" value="" style="endArrow=classic;html=1;rounded=0;fontSize=12;startSize=8;endSize=8;curved=1;" edge="1" parent="1">
          <mxGeometry width="50" height="50" relative="1" as="geometry">
            <mxPoint x="-310" y="568" as="sourcePoint" />
            <mxPoint x="-398" y="568" as="targetPoint" />
          </mxGeometry>
        </mxCell>
        <mxCell id="TdGyltSRt4Dew1mmWfEQ-361" value="" style="endArrow=classic;html=1;rounded=0;fontSize=12;startSize=8;endSize=8;curved=1;" edge="1" parent="1">
          <mxGeometry width="50" height="50" relative="1" as="geometry">
            <mxPoint x="-313" y="610" as="sourcePoint" />
            <mxPoint x="-397" y="610" as="targetPoint" />
          </mxGeometry>
        </mxCell>
        <mxCell id="TdGyltSRt4Dew1mmWfEQ-362" value="" style="endArrow=classic;html=1;rounded=0;fontSize=12;startSize=8;endSize=8;curved=1;" edge="1" parent="1">
          <mxGeometry width="50" height="50" relative="1" as="geometry">
            <mxPoint x="-312" y="648" as="sourcePoint" />
            <mxPoint x="-392" y="648" as="targetPoint" />
          </mxGeometry>
        </mxCell>
        <mxCell id="TdGyltSRt4Dew1mmWfEQ-363" value="" style="endArrow=classic;html=1;rounded=0;fontSize=12;startSize=8;endSize=8;curved=1;" edge="1" parent="1">
          <mxGeometry width="50" height="50" relative="1" as="geometry">
            <mxPoint x="-312" y="696" as="sourcePoint" />
            <mxPoint x="-393" y="696" as="targetPoint" />
          </mxGeometry>
        </mxCell>
        <mxCell id="TdGyltSRt4Dew1mmWfEQ-364" value="" style="endArrow=classic;html=1;rounded=0;fontSize=12;startSize=8;endSize=8;curved=1;" edge="1" parent="1">
          <mxGeometry width="50" height="50" relative="1" as="geometry">
            <mxPoint x="-312" y="759.67" as="sourcePoint" />
            <mxPoint x="-393" y="759.67" as="targetPoint" />
          </mxGeometry>
        </mxCell>
        <mxCell id="TdGyltSRt4Dew1mmWfEQ-365" value="" style="endArrow=classic;html=1;rounded=0;fontSize=12;startSize=8;endSize=8;curved=1;" edge="1" parent="1">
          <mxGeometry width="50" height="50" relative="1" as="geometry">
            <mxPoint x="-312" y="809" as="sourcePoint" />
            <mxPoint x="-396" y="809" as="targetPoint" />
          </mxGeometry>
        </mxCell>
        <mxCell id="TdGyltSRt4Dew1mmWfEQ-366" value="" style="endArrow=classic;html=1;rounded=0;fontSize=12;startSize=8;endSize=8;curved=1;" edge="1" parent="1">
          <mxGeometry width="50" height="50" relative="1" as="geometry">
            <mxPoint x="-308" y="853" as="sourcePoint" />
            <mxPoint x="-398" y="853" as="targetPoint" />
          </mxGeometry>
        </mxCell>
        <mxCell id="TdGyltSRt4Dew1mmWfEQ-368" value="Done" style="text;strokeColor=none;fillColor=none;html=1;align=center;verticalAlign=middle;whiteSpace=wrap;rounded=0;fontSize=16;" vertex="1" parent="1">
          <mxGeometry x="-453.5" y="553" width="60" height="30" as="geometry" />
        </mxCell>
        <mxCell id="TdGyltSRt4Dew1mmWfEQ-369" value="LDO" style="text;strokeColor=none;fillColor=none;html=1;align=center;verticalAlign=middle;whiteSpace=wrap;rounded=0;fontSize=16;" vertex="1" parent="1">
          <mxGeometry x="-453.5" y="596" width="60" height="30" as="geometry" />
        </mxCell>
        <mxCell id="TdGyltSRt4Dew1mmWfEQ-371" value="LD14" style="text;strokeColor=none;fillColor=none;html=1;align=center;verticalAlign=middle;whiteSpace=wrap;rounded=0;fontSize=16;" vertex="1" parent="1">
          <mxGeometry x="-450" y="638" width="60" height="30" as="geometry" />
        </mxCell>
        <mxCell id="TdGyltSRt4Dew1mmWfEQ-372" value="LD15" style="text;strokeColor=none;fillColor=none;html=1;align=center;verticalAlign=middle;whiteSpace=wrap;rounded=0;fontSize=16;" vertex="1" parent="1">
          <mxGeometry x="-444" y="682" width="60" height="30" as="geometry" />
        </mxCell>
        <mxCell id="TdGyltSRt4Dew1mmWfEQ-374" value="LD12" style="text;strokeColor=none;fillColor=none;html=1;align=center;verticalAlign=middle;whiteSpace=wrap;rounded=0;fontSize=16;" vertex="1" parent="1">
          <mxGeometry x="-444" y="742" width="60" height="30" as="geometry" />
        </mxCell>
        <mxCell id="TdGyltSRt4Dew1mmWfEQ-375" value="LD13" style="text;strokeColor=none;fillColor=none;html=1;align=center;verticalAlign=middle;whiteSpace=wrap;rounded=0;fontSize=16;" vertex="1" parent="1">
          <mxGeometry x="-448" y="794" width="60" height="30" as="geometry" />
        </mxCell>
        <mxCell id="TdGyltSRt4Dew1mmWfEQ-377" value="Inc" style="text;strokeColor=none;fillColor=none;html=1;align=center;verticalAlign=middle;whiteSpace=wrap;rounded=0;fontSize=16;" vertex="1" parent="1">
          <mxGeometry x="-453.5" y="834" width="60" height="30" as="geometry" />
        </mxCell>
        <mxCell id="TdGyltSRt4Dew1mmWfEQ-381" value="Dec" style="text;strokeColor=none;fillColor=none;html=1;align=center;verticalAlign=middle;whiteSpace=wrap;rounded=0;fontSize=16;" vertex="1" parent="1">
          <mxGeometry x="-448" y="880.5" width="60" height="30" as="geometry" />
        </mxCell>
        <mxCell id="TdGyltSRt4Dew1mmWfEQ-382" value="" style="endArrow=classic;html=1;rounded=0;" edge="1" parent="1">
          <mxGeometry width="50" height="50" relative="1" as="geometry">
            <mxPoint x="808" y="897" as="sourcePoint" />
            <mxPoint x="680" y="902" as="targetPoint" />
          </mxGeometry>
        </mxCell>
        <mxCell id="TdGyltSRt4Dew1mmWfEQ-383" value="" style="endArrow=classic;html=1;rounded=0;" edge="1" parent="1">
          <mxGeometry width="50" height="50" relative="1" as="geometry">
            <mxPoint x="620" y="924" as="sourcePoint" />
            <mxPoint x="620" y="1022" as="targetPoint" />
          </mxGeometry>
        </mxCell>
        <mxCell id="TdGyltSRt4Dew1mmWfEQ-385" value="LDO" style="text;strokeColor=none;fillColor=none;html=1;align=center;verticalAlign=middle;whiteSpace=wrap;rounded=0;fontSize=16;" vertex="1" parent="1">
          <mxGeometry x="587" y="1026" width="60" height="30" as="geometry" />
        </mxCell>
        <mxCell id="TdGyltSRt4Dew1mmWfEQ-389" value="" style="endArrow=classic;html=1;rounded=0;fontSize=12;startSize=8;endSize=8;curved=1;entryX=1;entryY=0.5;entryDx=0;entryDy=0;" edge="1" parent="1" target="TdGyltSRt4Dew1mmWfEQ-381">
          <mxGeometry width="50" height="50" relative="1" as="geometry">
            <mxPoint x="-308" y="896" as="sourcePoint" />
            <mxPoint x="-258" y="846" as="targetPoint" />
          </mxGeometry>
        </mxCell>
        <mxCell id="TdGyltSRt4Dew1mmWfEQ-391" value="" style="endArrow=none;html=1;rounded=0;fontSize=12;startSize=8;endSize=8;curved=1;" edge="1" parent="1">
          <mxGeometry width="50" height="50" relative="1" as="geometry">
            <mxPoint x="-5" y="-79" as="sourcePoint" />
            <mxPoint x="885" y="-87" as="targetPoint" />
          </mxGeometry>
        </mxCell>
        <mxCell id="TdGyltSRt4Dew1mmWfEQ-392" value="" style="endArrow=none;html=1;rounded=0;fontSize=12;startSize=8;endSize=8;curved=1;entryX=0.5;entryY=1;entryDx=0;entryDy=0;" edge="1" parent="1">
          <mxGeometry width="50" height="50" relative="1" as="geometry">
            <mxPoint x="870" y="98" as="sourcePoint" />
            <mxPoint x="906" y="79" as="targetPoint" />
          </mxGeometry>
        </mxCell>
        <mxCell id="TdGyltSRt4Dew1mmWfEQ-394" value="" style="endArrow=none;html=1;rounded=0;fontSize=12;startSize=8;endSize=8;curved=1;" edge="1" parent="1">
          <mxGeometry width="50" height="50" relative="1" as="geometry">
            <mxPoint x="537" y="141" as="sourcePoint" />
            <mxPoint x="572" y="115" as="targetPoint" />
          </mxGeometry>
        </mxCell>
        <mxCell id="TdGyltSRt4Dew1mmWfEQ-395" value="8" style="text;strokeColor=none;fillColor=none;html=1;align=center;verticalAlign=middle;whiteSpace=wrap;rounded=0;fontSize=16;" vertex="1" parent="1">
          <mxGeometry x="512" y="107" width="60" height="30" as="geometry" />
        </mxCell>
        <mxCell id="TdGyltSRt4Dew1mmWfEQ-396" style="edgeStyle=none;curved=1;rounded=0;orthogonalLoop=1;jettySize=auto;html=1;exitX=0.5;exitY=0;exitDx=0;exitDy=0;fontSize=12;startSize=8;endSize=8;" edge="1" parent="1" source="TdGyltSRt4Dew1mmWfEQ-395" target="TdGyltSRt4Dew1mmWfEQ-395">
          <mxGeometry relative="1" as="geometry" />
        </mxCell>
        <mxCell id="TdGyltSRt4Dew1mmWfEQ-397" value="8" style="text;strokeColor=none;fillColor=none;html=1;align=center;verticalAlign=middle;whiteSpace=wrap;rounded=0;fontSize=16;" vertex="1" parent="1">
          <mxGeometry x="843" y="67" width="60" height="30" as="geometry" />
        </mxCell>
        <mxCell id="TdGyltSRt4Dew1mmWfEQ-403" value="" style="rounded=0;whiteSpace=wrap;html=1;" vertex="1" parent="1">
          <mxGeometry x="-427" y="352" width="120" height="60" as="geometry" />
        </mxCell>
        <mxCell id="TdGyltSRt4Dew1mmWfEQ-404" value="" style="triangle;whiteSpace=wrap;html=1;" vertex="1" parent="1">
          <mxGeometry x="-427" y="388" width="16" height="24" as="geometry" />
        </mxCell>
        <mxCell id="TdGyltSRt4Dew1mmWfEQ-405" value="Clock Divider" style="text;strokeColor=none;fillColor=none;html=1;align=center;verticalAlign=middle;whiteSpace=wrap;rounded=0;fontSize=14;" vertex="1" parent="1">
          <mxGeometry x="-394.5" y="370.5" width="55" height="23" as="geometry" />
        </mxCell>
        <mxCell id="TdGyltSRt4Dew1mmWfEQ-407" value="" style="endArrow=none;html=1;rounded=0;fontSize=12;startSize=8;endSize=8;curved=1;" edge="1" parent="1">
          <mxGeometry width="50" height="50" relative="1" as="geometry">
            <mxPoint x="-493" y="403" as="sourcePoint" />
            <mxPoint x="-493" y="308" as="targetPoint" />
          </mxGeometry>
        </mxCell>
        <mxCell id="TdGyltSRt4Dew1mmWfEQ-408" value="" style="endArrow=classic;html=1;rounded=0;fontSize=12;startSize=8;endSize=8;curved=1;entryX=0.5;entryY=1;entryDx=0;entryDy=0;" edge="1" parent="1" target="TdGyltSRt4Dew1mmWfEQ-404">
          <mxGeometry width="50" height="50" relative="1" as="geometry">
            <mxPoint x="-490" y="405" as="sourcePoint" />
            <mxPoint x="-440" y="355" as="targetPoint" />
          </mxGeometry>
        </mxCell>
        <mxCell id="TdGyltSRt4Dew1mmWfEQ-409" value="" style="endArrow=classic;html=1;rounded=0;fontSize=12;startSize=8;endSize=8;curved=1;entryX=0;entryY=0.5;entryDx=0;entryDy=0;" edge="1" parent="1" target="TdGyltSRt4Dew1mmWfEQ-14">
          <mxGeometry width="50" height="50" relative="1" as="geometry">
            <mxPoint x="-307" y="383" as="sourcePoint" />
            <mxPoint x="-257" y="333" as="targetPoint" />
          </mxGeometry>
        </mxCell>
        <mxCell id="TdGyltSRt4Dew1mmWfEQ-410" value="1Hz" style="text;strokeColor=none;fillColor=none;html=1;align=center;verticalAlign=middle;whiteSpace=wrap;rounded=0;fontSize=16;" vertex="1" parent="1">
          <mxGeometry x="-313" y="358" width="60" height="30" as="geometry" />
        </mxCell>
        <mxCell id="TdGyltSRt4Dew1mmWfEQ-411" value="" style="endArrow=none;html=1;rounded=0;fontSize=12;startSize=8;endSize=8;curved=1;" edge="1" parent="1">
          <mxGeometry width="50" height="50" relative="1" as="geometry">
            <mxPoint x="-270" y="503" as="sourcePoint" />
            <mxPoint x="-270" y="382" as="targetPoint" />
          </mxGeometry>
        </mxCell>
        <mxCell id="TdGyltSRt4Dew1mmWfEQ-412" value="" style="endArrow=none;html=1;rounded=0;fontSize=12;startSize=8;endSize=8;curved=1;" edge="1" parent="1">
          <mxGeometry width="50" height="50" relative="1" as="geometry">
            <mxPoint x="-269" y="499" as="sourcePoint" />
            <mxPoint x="178" y="499" as="targetPoint" />
          </mxGeometry>
        </mxCell>
        <mxCell id="TdGyltSRt4Dew1mmWfEQ-414" value="" style="endArrow=none;html=1;rounded=0;fontSize=12;startSize=8;endSize=8;curved=1;" edge="1" parent="1">
          <mxGeometry width="50" height="50" relative="1" as="geometry">
            <mxPoint x="178" y="634" as="sourcePoint" />
            <mxPoint x="178" y="498" as="targetPoint" />
          </mxGeometry>
        </mxCell>
        <mxCell id="TdGyltSRt4Dew1mmWfEQ-415" value="" style="endArrow=classic;html=1;rounded=0;fontSize=12;startSize=8;endSize=8;curved=1;entryX=0;entryY=0.5;entryDx=0;entryDy=0;" edge="1" parent="1" target="TdGyltSRt4Dew1mmWfEQ-161">
          <mxGeometry width="50" height="50" relative="1" as="geometry">
            <mxPoint x="183" y="633" as="sourcePoint" />
            <mxPoint x="233" y="583" as="targetPoint" />
          </mxGeometry>
        </mxCell>
        <mxCell id="TdGyltSRt4Dew1mmWfEQ-417" value="Load" style="text;strokeColor=none;fillColor=none;html=1;align=center;verticalAlign=middle;whiteSpace=wrap;rounded=0;fontSize=12;" vertex="1" parent="1">
          <mxGeometry x="-110" y="334" width="30" height="20" as="geometry" />
        </mxCell>
        <mxCell id="TdGyltSRt4Dew1mmWfEQ-418" value="" style="endArrow=classic;html=1;rounded=0;fontSize=12;startSize=8;endSize=8;curved=1;entryX=1;entryY=0.25;entryDx=0;entryDy=0;" edge="1" parent="1" target="TdGyltSRt4Dew1mmWfEQ-417">
          <mxGeometry width="50" height="50" relative="1" as="geometry">
            <mxPoint x="-7" y="339" as="sourcePoint" />
            <mxPoint x="43" y="289" as="targetPoint" />
          </mxGeometry>
        </mxCell>
      </root>
    </mxGraphModel>
  </diagram>
</mxfile>
